
<svg width="180px" height="54px" viewBox="0 0 180 54" version="1.1" xmlns="http://www.w3.org/2000/svg" xmlns:xlink="http://www.w3.org/1999/xlink">
    <defs>
        <linearGradient x1="-7.11976744%" y1="91.9844444%" x2="91.1143411%" y2="28.8325556%" id="linearGradient-1">
            <stop stop-color="#5697DC" offset="0%"></stop>
            <stop stop-color="#4B83BC" offset="37.4%"></stop>
            <stop stop-color="#41709C" offset="69.83%"></stop>
        </linearGradient>
        <linearGradient x1="6.57984496%" y1="100.047222%" x2="68.6357881%" y2="36.4455556%" id="linearGradient-2">
            <stop stop-color="#5EA4F3" offset="0%"></stop>
            <stop stop-color="#5899E0" offset="31.06%"></stop>
            <stop stop-color="#497EAF" offset="93.72%"></stop>
            <stop stop-color="#477BAA" offset="100%"></stop>
        </linearGradient>
        <linearGradient x1="10.194186%" y1="-5.516%" x2="84.5992248%" y2="74.3647778%" id="linearGradient-3">
            <stop stop-color="#386391" offset="0%"></stop>
            <stop stop-color="#335786" offset="73.51%"></stop>
            <stop stop-color="#315181" offset="100%"></stop>
        </linearGradient>
        <linearGradient x1="9.87739018%" y1="-11.4299484%" x2="107.139018%" y2="86.0719449%" id="linearGradient-4">
            <stop stop-color="#4B84AF" offset="22.35%"></stop>
            <stop stop-color="#355886" offset="100%"></stop>
        </linearGradient>
        <linearGradient x1="102.916423%" y1="3.08746082%" x2="14.9956204%" y2="80.3755486%" id="linearGradient-5">
            <stop stop-color="#42729E" offset="0%"></stop>
            <stop stop-color="#3B608F" offset="32.88%"></stop>
            <stop stop-color="#2D3F72" offset="100%"></stop>
        </linearGradient>
        <linearGradient x1="-9.47035573%" y1="87.5120748%" x2="55.2747036%" y2="50.8727891%" id="linearGradient-6">
            <stop stop-color="#CFE135" offset="0%"></stop>
            <stop stop-color="#BAD433" offset="22.23%"></stop>
            <stop stop-color="#90B930" offset="73.73%"></stop>
            <stop stop-color="#7FAE2F" offset="100%"></stop>
        </linearGradient>
        <linearGradient x1="-4.24525692%" y1="96.0884354%" x2="83.7235178%" y2="20.387415%" id="linearGradient-7">
            <stop stop-color="#D9E636" offset="40.22%"></stop>
            <stop stop-color="#C7DB36" offset="48.83%"></stop>
            <stop stop-color="#9ABF35" offset="65.93%"></stop>
            <stop stop-color="#68A135" offset="82.48%"></stop>
        </linearGradient>
        <linearGradient x1="7.70197628%" y1="-2.33571429%" x2="83.3551383%" y2="71.5484694%" id="linearGradient-8">
            <stop stop-color="#95BD49" offset="0%"></stop>
            <stop stop-color="#4C8645" offset="100%"></stop>
        </linearGradient>
        <linearGradient x1="9.8958498%" y1="-11.3547368%" x2="107.137154%" y2="86.0821053%" id="linearGradient-9">
            <stop stop-color="#C9D542" offset="0%"></stop>
            <stop stop-color="#92B447" offset="42.94%"></stop>
            <stop stop-color="#679A4B" offset="80.74%"></stop>
            <stop stop-color="#57904D" offset="100%"></stop>
        </linearGradient>
        <linearGradient x1="5.27932961%" y1="50.0745192%" x2="104.991061%" y2="50.0745192%" id="linearGradient-10">
            <stop stop-color="#365F19" offset="0%"></stop>
            <stop stop-color="#427428" offset="68.1%"></stop>
            <stop stop-color="#487F30" offset="100%"></stop>
        </linearGradient>
    </defs>
    <g id="Page-1" stroke="none" stroke-width="1" fill="none" fill-rule="evenodd">
        <g id="logo">
            <g id="Group-2" transform="translate(55.000000, 9.000000)">
                <g id="Group" transform="translate(51.000000, 2.000000)">
                    <path d="M64.9989203,16.3203 L2.22592031,16.3203 C0.98992031,16.3203 -0.0350796898,15.2958 0.000920310165,14.0241 L0.000920310165,2.1549 C0.0359203102,0.9538 1.02492031,0 2.22592031,0 L71.3219203,0 C72.9829203,0 74.0779203,1.7663 73.2649203,3.2499 L66.9419203,15.1545 C66.5529203,15.861 65.8119203,16.3203 64.9989203,16.3203 Z" id="Path" fill="#185DD3"></path>
                    <path d="M6.12125,7.2146 C6.12125,7.5679 6.08625,7.8858 6.08625,8.2037 C6.08625,8.5217 6.08625,8.8396 6.12125,9.1928 C6.15625,9.8287 6.33325,10.3586 6.72225,10.7471 C7.07525,11.1357 7.60525,11.3477 8.31125,11.3477 C8.70025,11.3477 8.98225,11.3123 9.26525,11.2064 C9.51225,11.1004 9.72425,10.9944 9.90125,10.8531 C10.07725,10.7118 10.18325,10.5352 10.28925,10.3586 C10.39525,10.1819 10.43125,9.97 10.50125,9.7934 C10.50125,9.7227 10.57225,9.6521 10.60725,9.6167 C10.67825,9.5814 10.74925,9.5461 10.78425,9.5461 L11.31425,9.5461 C11.38425,9.5461 11.45525,9.5814 11.49025,9.6167 C11.52625,9.6521 11.56125,9.7227 11.56125,9.7934 C11.56125,10.0406 11.49025,10.3232 11.34925,10.6412 C11.20825,10.9591 11.03125,11.2417 10.78425,11.489 C10.53725,11.7716 10.18325,11.9835 9.79525,12.1602 C9.37125,12.3368 8.87625,12.4427 8.31125,12.4427 C7.81725,12.4427 7.35725,12.3721 6.96925,12.1955 C6.58025,12.0189 6.22725,11.8069 5.94425,11.5243 C5.66225,11.2417 5.45025,10.9238 5.27325,10.5352 C5.13225,10.1466 5.02625,9.7227 5.02625,9.2635 C4.99125,8.557 4.99125,7.8858 5.02625,7.1793 C5.02625,6.7201 5.13225,6.2962 5.27325,5.9076 C5.41425,5.519 5.66225,5.2011 5.94425,4.9185 C6.22725,4.6359 6.58025,4.4239 6.96925,4.2473 C7.35725,4.0707 7.81725,4 8.31125,4 C8.87625,4 9.37125,4.106 9.79525,4.2826 C10.21925,4.4593 10.53725,4.6712 10.78425,4.9538 C11.03125,5.2364 11.24325,5.519 11.34925,5.8016 C11.49025,6.1196 11.52625,6.3668 11.56125,6.6494 C11.56125,6.7201 11.52625,6.7907 11.49025,6.8261 C11.45525,6.8614 11.38425,6.8967 11.31425,6.8967 L10.78425,6.8967 C10.71325,6.8967 10.64325,6.8614 10.60725,6.8261 C10.53725,6.7907 10.50125,6.7201 10.50125,6.6494 C10.46625,6.4728 10.39525,6.2608 10.28925,6.0842 C10.18325,5.9076 10.07725,5.731 9.90125,5.5897 C9.72425,5.4484 9.51225,5.3071 9.26525,5.2364 C9.01825,5.1304 8.70025,5.0951 8.31125,5.0951 C7.60525,5.0951 7.07525,5.3071 6.72225,5.6957 C6.36825,6.0489 6.15625,6.5788 6.12125,7.2146 Z" id="Path" fill="#FFFFFF"></path>
                    <path d="M13.318,12.1601 C13.248,12.1601 13.142,12.1248 13.106,12.0541 C13.036,11.9835 13,11.9128 13,11.8422 L13,4.3179 C13,4.2473 13.036,4.1413 13.106,4.106 C13.177,4.0353 13.248,4 13.318,4 L13.813,4 C13.884,4 13.99,4.0353 14.025,4.106 C14.096,4.1766 14.131,4.2473 14.131,4.3179 L14.131,10.0406 L17.911,4.3532 C17.981,4.2826 18.017,4.1766 18.087,4.106 C18.158,4.0353 18.264,4 18.37,4 L18.794,4 C18.864,4 18.97,4.0353 19.006,4.106 C19.076,4.1766 19.112,4.2473 19.112,4.3179 L19.112,11.8422 C19.112,11.9128 19.076,12.0188 19.006,12.0541 C18.935,12.1248 18.864,12.1601 18.794,12.1601 L18.299,12.1601 C18.229,12.1601 18.123,12.1248 18.087,12.0541 C18.017,11.9835 17.981,11.9128 17.981,11.8422 L17.981,6.1195 L14.202,11.8068 C14.131,11.8775 14.096,11.9835 14.025,12.0541 C13.954,12.1248 13.848,12.1601 13.742,12.1601 L13.318,12.1601 Z" id="Path" fill="#FFFFFF"></path>
                    <path d="M22.12125,7.2146 C22.12125,7.5679 22.08625,7.8858 22.08625,8.2037 C22.08625,8.5217 22.08625,8.8396 22.12125,9.1928 C22.15725,9.8287 22.33325,10.3586 22.72225,10.7471 C23.07525,11.1357 23.60525,11.3477 24.31125,11.3477 C24.70025,11.3477 24.98325,11.3123 25.26525,11.2064 C25.51325,11.1004 25.72425,10.9944 25.90125,10.8531 C26.07825,10.7118 26.18425,10.5352 26.29025,10.3586 C26.39625,10.1819 26.43125,9.97 26.50225,9.7934 C26.50225,9.7227 26.57225,9.6521 26.60825,9.6167 C26.67825,9.5814 26.74925,9.5461 26.78425,9.5461 L27.31425,9.5461 C27.38525,9.5461 27.45525,9.5814 27.49125,9.6167 C27.52625,9.6521 27.56125,9.7227 27.56125,9.7934 C27.56125,10.0406 27.49125,10.3232 27.34925,10.6412 C27.20825,10.9591 27.03225,11.2417 26.78425,11.489 C26.53725,11.7716 26.18425,11.9835 25.79525,12.1602 C25.37125,12.3368 24.87725,12.4427 24.31125,12.4427 C23.81725,12.4427 23.35825,12.3721 22.96925,12.1955 C22.58125,12.0189 22.22725,11.8069 21.94525,11.5243 C21.66225,11.2417 21.45025,10.9238 21.27425,10.5352 C21.13225,10.1466 21.02625,9.7227 21.02625,9.2635 C20.99125,8.557 20.99125,7.8858 21.02625,7.1793 C21.02625,6.7201 21.13225,6.2962 21.27425,5.9076 C21.41525,5.519 21.66225,5.2011 21.94525,4.9185 C22.22725,4.6359 22.58125,4.4239 22.96925,4.2473 C23.35825,4.0707 23.81725,4 24.31125,4 C24.87725,4 25.37125,4.106 25.79525,4.2826 C26.21925,4.4593 26.53725,4.6712 26.78425,4.9538 C27.03225,5.2364 27.24325,5.519 27.34925,5.8016 C27.49125,6.1196 27.52625,6.3668 27.56125,6.6494 C27.56125,6.7201 27.52625,6.7907 27.49125,6.8261 C27.45525,6.8614 27.38525,6.8967 27.31425,6.8967 L26.78425,6.8967 C26.71425,6.8967 26.64325,6.8614 26.60825,6.8261 C26.53725,6.7907 26.50225,6.7201 26.50225,6.6494 C26.46625,6.4728 26.39625,6.2608 26.29025,6.0842 C26.18425,5.9076 26.07825,5.731 25.90125,5.5897 C25.72425,5.4484 25.51325,5.3071 25.26525,5.2364 C25.01825,5.1304 24.70025,5.0951 24.31125,5.0951 C23.60525,5.0951 23.07525,5.3071 22.72225,5.6957 C22.33325,6.0489 22.15725,6.5788 22.12125,7.2146 Z" id="Path" fill="#FFFFFF"></path>
                    <path d="M33.829,4 C33.9,4 34.006,4.0353 34.041,4.106 C34.112,4.1766 34.147,4.2473 34.147,4.3179 L34.147,4.7418 C34.147,4.8125 34.112,4.9184 34.041,4.9538 C33.97,5.0244 33.9,5.0598 33.829,5.0598 L31.639,5.0598 L31.639,11.8422 C31.639,11.9128 31.604,12.0188 31.533,12.0541 C31.462,12.1248 31.392,12.1601 31.321,12.1601 L30.826,12.1601 C30.756,12.1601 30.65,12.1248 30.615,12.0541 C30.544,11.9835 30.509,11.9128 30.509,11.8422 L30.509,5.0598 L28.318,5.0598 C28.248,5.0598 28.142,5.0244 28.106,4.9538 C28.036,4.8831 28,4.8125 28,4.7418 L28,4.3179 C28,4.2473 28.036,4.1413 28.106,4.106 C28.177,4.0353 28.248,4 28.318,4 L33.829,4 Z" id="Path" fill="#FFFFFF"></path>
                    <path d="M41.017,11.1003 C41.087,11.1003 41.158,11.1357 41.229,11.2063 C41.299,11.277 41.335,11.3476 41.335,11.4183 L41.335,11.8422 C41.335,11.9128 41.299,12.0188 41.229,12.0541 C41.158,12.1248 41.087,12.1601 41.017,12.1601 L36.318,12.1601 C36.248,12.1601 36.142,12.1248 36.106,12.0541 C36.036,11.9835 36,11.9128 36,11.8422 L36,4.3179 C36,4.2473 36.036,4.1413 36.106,4.106 C36.177,4.0353 36.248,4 36.318,4 L40.946,4 C41.017,4 41.087,4.0353 41.158,4.106 C41.229,4.1766 41.264,4.2473 41.264,4.3179 L41.264,4.7418 C41.264,4.8125 41.229,4.9184 41.158,4.9538 C41.087,5.0244 41.017,5.0598 40.946,5.0598 L37.131,5.0598 L37.131,7.5325 L40.663,7.5325 C40.734,7.5325 40.84,7.5678 40.875,7.6385 C40.946,7.7091 40.981,7.7798 40.981,7.8504 L40.981,8.2743 C40.981,8.345 40.946,8.451 40.875,8.4863 C40.805,8.5569 40.734,8.5923 40.663,8.5923 L37.096,8.5923 L37.096,11.1357 L41.017,11.1357 L41.017,11.1003 Z" id="Path" fill="#FFFFFF"></path>
                    <path d="M45.674,8.9102 L48.04,4.3533 C48.076,4.2473 48.146,4.1767 48.217,4.106 C48.288,4.0354 48.394,4 48.535,4 L48.994,4 C49.065,4 49.171,4.0354 49.206,4.106 C49.241,4.1767 49.312,4.2473 49.312,4.318 L49.312,11.8422 C49.312,11.9129 49.277,12.0189 49.206,12.0542 C49.135,12.1248 49.065,12.1602 48.994,12.1602 L48.5,12.1602 C48.429,12.1602 48.323,12.1248 48.288,12.0542 C48.217,11.9835 48.182,11.9129 48.182,11.8422 L48.182,6.3315 L46.38,9.8287 C46.309,9.9347 46.239,10.0407 46.168,10.1113 C46.098,10.182 45.992,10.2173 45.886,10.2173 L45.426,10.2173 C45.32,10.2173 45.214,10.182 45.144,10.1113 C45.073,10.0407 45.002,9.97 44.932,9.8287 L43.13,6.3315 L43.13,11.8422 C43.13,11.9129 43.095,12.0189 43.024,12.0542 C42.954,12.1248 42.883,12.1602 42.812,12.1602 L42.318,12.1602 C42.247,12.1602 42.141,12.1248 42.106,12.0542 C42.035,11.9835 42,11.9129 42,11.8422 L42,4.318 C42,4.2473 42.035,4.1414 42.106,4.106 C42.176,4.0354 42.247,4 42.318,4 L42.777,4 C42.918,4 43.024,4.0354 43.095,4.106 C43.166,4.1767 43.236,4.2826 43.272,4.3533 L45.674,8.9102 Z" id="Path" fill="#FFFFFF"></path>
                    <path d="M56.758,10.3232 L52.731,10.3232 L52.131,11.8775 C52.096,11.9482 52.06,12.0188 51.99,12.0541 C51.919,12.1248 51.813,12.1601 51.672,12.1601 L51.248,12.1601 C51.177,12.1601 51.106,12.1248 51.071,12.0895 C51.036,12.0541 51,11.9835 51,11.9128 C51,11.8775 51,11.8069 51.036,11.7362 L53.897,4.3886 C53.932,4.3179 54.003,4.2119 54.074,4.1413 C54.144,4.0706 54.25,4 54.427,4 L55.134,4 C55.275,4 55.416,4.0353 55.487,4.1413 C55.557,4.2119 55.628,4.3179 55.663,4.3886 L58.489,11.7362 C58.525,11.8069 58.525,11.8775 58.525,11.9128 C58.525,11.9835 58.489,12.0541 58.454,12.0895 C58.419,12.1248 58.348,12.1601 58.277,12.1601 L57.854,12.1601 C57.712,12.1601 57.606,12.1248 57.536,12.0541 C57.465,11.9835 57.43,11.9128 57.394,11.8775 L56.758,10.3232 Z M53.12,9.2634 L56.335,9.2634 L54.745,5.0951 L53.12,9.2634 Z" id="Shape" fill="#FFFFFF" fill-rule="nonzero"></path>
                </g>
                <path d="M5.916,16.17 C4.35199218,16.17 3.14217095,15.770504 2.2865,14.9715 C1.43082906,14.172496 0.97466695,13.0363407 0.918,11.563 C0.90666661,11.2569985 0.901,10.7583368 0.901,10.067 C0.901,9.36432982 0.90666661,8.85433492 0.918,8.537 C0.97466695,7.08632608 1.43366236,5.95583738 2.295,5.1455 C3.15633764,4.33516261 4.36332557,3.93 5.916,3.93 C6.92467171,3.93 7.80299626,4.1028316 8.551,4.4485 C9.29900374,4.79416839 9.87983126,5.26733033 10.2935,5.868 C10.7071687,6.46866967 10.9253332,7.14299626 10.948,7.891 L10.948,7.925 C10.948,8.01566712 10.911167,8.09216635 10.8375,8.1545 C10.763833,8.21683364 10.6816671,8.248 10.591,8.248 L8.942,8.248 C8.80599932,8.248 8.70400034,8.21683364 8.636,8.1545 C8.56799966,8.09216635 8.51133356,7.98166746 8.466,7.823 C8.29599915,7.12032982 8.00133543,6.62450144 7.582,6.3355 C7.16266457,6.04649855 6.60733679,5.902 5.916,5.902 C4.29532523,5.902 3.45100034,6.8086576 3.383,8.622 C3.37166661,8.92800153 3.366,9.39833016 3.366,10.033 C3.366,10.6676698 3.37166661,11.1493317 3.383,11.478 C3.45100034,13.2913424 4.29532523,14.198 5.916,14.198 C6.5960034,14.198 7.14849788,14.0535014 7.5735,13.7645 C7.99850212,13.4754986 8.29599915,12.9796702 8.466,12.277 C8.51133356,12.1183325 8.56799966,12.0078336 8.636,11.9455 C8.70400034,11.8831664 8.80599932,11.852 8.942,11.852 L10.591,11.852 C10.6930005,11.852 10.780833,11.8859997 10.8545,11.954 C10.928167,12.0220003 10.9593334,12.1069995 10.948,12.209 C10.9253332,12.9570037 10.7071687,13.6313303 10.2935,14.232 C9.87983126,14.8326697 9.29900374,15.3058316 8.551,15.6515 C7.80299626,15.9971684 6.92467171,16.17 5.916,16.17 Z M17.561,16.17 C16.0083256,16.17 14.8013376,15.7790039 13.94,14.997 C13.0786624,14.2149961 12.6253336,13.053341 12.58,11.512 C12.5686666,11.1833317 12.563,10.7016698 12.563,10.067 C12.563,9.42099677 12.5686666,8.93366831 12.58,8.605 C12.6253336,7.09765913 13.0899956,5.94167069 13.974,5.137 C14.8580044,4.33232931 16.0536591,3.93 17.561,3.93 C19.0570075,3.93 20.2498289,4.33232931 21.1395,5.137 C22.0291711,5.94167069 22.4966664,7.09765913 22.542,8.605 C22.5646668,9.26233662 22.576,9.74966508 22.576,10.067 C22.576,10.3730015 22.5646668,10.8546634 22.542,11.512 C22.4966664,13.053341 22.0405043,14.2149961 21.1735,14.997 C20.3064957,15.7790039 19.102341,16.17 17.561,16.17 Z M17.561,14.198 C18.3203371,14.198 18.9209978,13.9713356 19.363,13.518 C19.8050022,13.0646644 20.0429998,12.3676714 20.077,11.427 C20.0996668,10.7469966 20.111,10.2880012 20.111,10.05 C20.111,9.78933203 20.0996668,9.33033662 20.077,8.673 C20.0429998,7.74366202 19.7993356,7.04950229 19.346,6.5905 C18.8926644,6.1314977 18.2976704,5.902 17.561,5.902 C16.8129963,5.902 16.2123356,6.1314977 15.759,6.5905 C15.3056644,7.04950229 15.0676668,7.74366202 15.045,8.673 C15.0336666,9.00166831 15.028,9.46066372 15.028,10.05 C15.028,10.6280029 15.0336666,11.0869983 15.045,11.427 C15.0676668,12.356338 15.3028311,13.0504977 15.7505,13.5095 C16.1981689,13.9685023 16.8016629,14.198 17.561,14.198 Z M25.194,16 C25.0806661,16 24.9843337,15.9603337 24.905,15.881 C24.8256663,15.8016663 24.786,15.7053339 24.786,15.592 L24.786,4.525 C24.786,4.40033271 24.822833,4.29833373 24.8965,4.219 C24.970167,4.13966627 25.0693327,4.1 25.194,4.1 L34.136,4.1 C34.2606673,4.1 34.359833,4.13966627 34.4335,4.219 C34.507167,4.29833373 34.544,4.40033271 34.544,4.525 L34.544,15.592 C34.544,15.7053339 34.507167,15.8016663 34.4335,15.881 C34.359833,15.9603337 34.2606673,16 34.136,16 L32.555,16 C32.4416661,16 32.3453337,15.9603337 32.266,15.881 C32.1866663,15.8016663 32.147,15.7053339 32.147,15.592 L32.147,6.259 L27.183,6.259 L27.183,15.592 C27.183,15.7053339 27.1433337,15.8016663 27.064,15.881 C26.9846663,15.9603337 26.8826673,16 26.758,16 L25.194,16 Z M40.222,16 C40.1086661,16 40.0123337,15.9603337 39.933,15.881 C39.8536663,15.8016663 39.814,15.7053339 39.814,15.592 L39.814,6.225 L36.669,6.225 C36.5556661,6.225 36.4593337,6.18533373 36.38,6.106 C36.3006663,6.02666627 36.261,5.92466729 36.261,5.8 L36.261,4.525 C36.261,4.40033271 36.297833,4.29833373 36.3715,4.219 C36.445167,4.13966627 36.5443327,4.1 36.669,4.1 L45.356,4.1 C45.4806673,4.1 45.5826663,4.13966627 45.662,4.219 C45.7413337,4.29833373 45.781,4.40033271 45.781,4.525 L45.781,5.8 C45.781,5.92466729 45.7413337,6.02666627 45.662,6.106 C45.5826663,6.18533373 45.4806673,6.225 45.356,6.225 L42.228,6.225 L42.228,15.592 C42.228,15.7053339 42.191167,15.8016663 42.1175,15.881 C42.043833,15.9603337 41.9446673,16 41.82,16 L40.222,16 Z" id="СОПТ" fill="#185DD3"></path>
                <path d="M6.41,27 C6.343333,27 6.2866669,26.9766669 6.24,26.93 C6.1933331,26.8833331 6.17,26.826667 6.17,26.76 L6.17,21.27 L4.01,21.27 L4.01,22.51 C4.01,23.6100055 3.93500075,24.4783302 3.785,25.115 C3.63499925,25.7516698 3.3800018,26.2183318 3.02,26.515 C2.6599982,26.8116682 2.1566699,26.9699999 1.51,26.99 C1.443333,26.9966667 1.38500025,26.9750003 1.335,26.925 C1.28499975,26.8749998 1.26,26.816667 1.26,26.75 L1.26,25.98 C1.26,25.913333 1.28166645,25.8600002 1.325,25.82 C1.36833355,25.7799998 1.423333,25.7533334 1.49,25.74 C1.8833353,25.6799997 2.17499905,25.3716694 2.365,24.815 C2.55500095,24.2583306 2.65,23.4300055 2.65,22.33 L2.65,20.24 C2.65,20.1666663 2.6733331,20.1083335 2.72,20.065 C2.7666669,20.0216664 2.823333,20 2.89,20 L7.33,20 C7.4033337,20 7.4633331,20.0233331 7.51,20.07 C7.5566669,20.1166669 7.58,20.1766663 7.58,20.25 L7.58,26.76 C7.58,26.826667 7.5566669,26.8833331 7.51,26.93 C7.4633331,26.9766669 7.4033337,27 7.33,27 L6.41,27 Z M14.74,26.66 C14.7600001,26.6866668 14.77,26.7233331 14.77,26.77 C14.77,26.8300003 14.7483336,26.8833331 14.705,26.93 C14.6616665,26.9766669 14.606667,27 14.54,27 L13.49,27 C13.356666,27 13.256667,26.9433339 13.19,26.83 L11.48,24.09 L10.54,24.09 L10.54,26.76 C10.54,26.826667 10.5166669,26.8833331 10.47,26.93 C10.4233331,26.9766669 10.3633337,27 10.29,27 L9.37,27 C9.303333,27 9.2466669,26.9766669 9.2,26.93 C9.1533331,26.8833331 9.13,26.826667 9.13,26.76 L9.13,20.25 C9.13,20.1766663 9.15166645,20.1166669 9.195,20.07 C9.23833355,20.0233331 9.2966663,20 9.37,20 L10.29,20 C10.3633337,20 10.4233331,20.0233331 10.47,20.07 C10.5166669,20.1166669 10.54,20.1766663 10.54,20.25 L10.54,22.82 L11.4,22.83 L13.01,20.18 C13.0833337,20.0599994 13.2033325,20 13.37,20 L14.39,20 C14.456667,20 14.5083332,20.0199998 14.545,20.06 C14.5816669,20.1000002 14.6,20.1499997 14.6,20.21 C14.6,20.2433335 14.5833335,20.2833331 14.55,20.33 L12.67,23.38 L14.74,26.66 Z M18.25,27 C18.183333,27 18.1266669,26.9766669 18.08,26.93 C18.0333331,26.8833331 18.01,26.826667 18.01,26.76 L18.01,22.04 C18.01,21.9666663 18.0333331,21.9083336 18.08,21.865 C18.1266669,21.8216665 18.183333,21.8 18.25,21.8 L19.1,21.8 C19.166667,21.8 19.2233331,21.8233331 19.27,21.87 C19.3166669,21.9166669 19.34,21.973333 19.34,22.04 L19.34,23.82 L21.57,23.82 L21.57,22.04 C21.57,21.973333 21.5933331,21.9166669 21.64,21.87 C21.6866669,21.8233331 21.743333,21.8 21.81,21.8 L22.66,21.8 C22.7333337,21.8 22.7916665,21.8216665 22.835,21.865 C22.8783336,21.9083336 22.9,21.9666663 22.9,22.04 L22.9,26.76 C22.9,26.826667 22.8783336,26.8833331 22.835,26.93 C22.7916665,26.9766669 22.7333337,27 22.66,27 L21.81,27 C21.743333,27 21.6866669,26.9766669 21.64,26.93 C21.5933331,26.8833331 21.57,26.826667 21.57,26.76 L21.57,24.89 L19.34,24.89 L19.34,26.76 C19.34,26.826667 19.3166669,26.8833331 19.27,26.93 C19.2233331,26.9766669 19.166667,27 19.1,27 L18.25,27 Z M25.76,27.1 C25.4199983,27.1 25.1083348,27.0316673 24.825,26.895 C24.5416653,26.7583326 24.3183342,26.5733345 24.155,26.34 C23.9916659,26.1066655 23.91,25.8500014 23.91,25.57 C23.91,25.1166644 24.0933315,24.7500014 24.46,24.47 C24.8266685,24.1899986 25.3299968,24.0000005 25.97,23.9 L27.34,23.7 L27.34,23.49 C27.34,23.2033319 27.2666674,22.9866674 27.12,22.84 C26.9733326,22.6933326 26.7400016,22.62 26.42,22.62 C26.1999989,22.62 26.023334,22.6599996 25.89,22.74 C25.756666,22.8200004 25.6483338,22.9016662 25.565,22.985 L25.4,23.15 C25.3733332,23.2300004 25.3233337,23.27 25.25,23.27 L24.47,23.27 C24.4099997,23.27 24.3583336,23.2500002 24.315,23.21 C24.2716665,23.1699998 24.25,23.116667 24.25,23.05 C24.2566667,22.8833325 24.3383326,22.6950011 24.495,22.485 C24.6516675,22.274999 24.8933317,22.0916675 25.22,21.935 C25.5466683,21.7783326 25.9499976,21.7 26.43,21.7 C27.2166706,21.7 27.7899982,21.8766649 28.15,22.23 C28.5100018,22.5833351 28.69,23.0466638 28.69,23.62 L28.69,26.76 C28.69,26.826667 28.6683336,26.8833331 28.625,26.93 C28.5816665,26.9766669 28.5233337,27 28.45,27 L27.62,27 C27.553333,27 27.4966669,26.9766669 27.45,26.93 C27.4033331,26.8833331 27.38,26.826667 27.38,26.76 L27.38,26.37 C27.2333326,26.5833344 27.026668,26.7583326 26.76,26.895 C26.493332,27.0316673 26.160002,27.1 25.76,27.1 Z M26.1,26.14 C26.4666685,26.14 26.7666655,26.0200012 27,25.78 C27.2333345,25.5399988 27.35,25.1933356 27.35,24.74 L27.35,24.54 L26.35,24.7 C25.5833295,24.8200006 25.2,25.0766647 25.2,25.47 C25.2,25.6833344 25.2883325,25.8483328 25.465,25.965 C25.6416675,26.0816672 25.8533321,26.14 26.1,26.14 Z M29.77,28.1 C29.703333,28.1 29.6466669,28.0783335 29.6,28.035 C29.5533331,27.9916665 29.53,27.9333337 29.53,27.86 L29.53,26.17 C29.53,26.0966663 29.5533331,26.0383335 29.6,25.995 C29.6466669,25.9516664 29.703333,25.93 29.77,25.93 L29.85,25.93 C30.1100013,25.93 30.2999994,25.7233354 30.42,25.31 C30.5400006,24.8966646 30.6,24.256671 30.6,23.39 L30.6,22.04 C30.6,21.9666663 30.6233331,21.9083336 30.67,21.865 C30.7166669,21.8216665 30.773333,21.8 30.84,21.8 L34.42,21.8 C34.4933337,21.8 34.5516664,21.8216665 34.595,21.865 C34.6383335,21.9083336 34.66,21.9666663 34.66,22.04 L34.66,25.92 L35.11,25.92 C35.1833337,25.92 35.2416664,25.9416664 35.285,25.985 C35.3283336,26.0283335 35.35,26.0866663 35.35,26.16 L35.35,27.86 C35.35,27.9333337 35.3283336,27.9916665 35.285,28.035 C35.2416664,28.0783335 35.1833337,28.1 35.11,28.1 L34.26,28.1 C34.193333,28.1 34.1366669,28.0783335 34.09,28.035 C34.0433331,27.9916665 34.02,27.9333337 34.02,27.86 L34.02,27 L30.86,27 L30.86,27.86 C30.86,27.9333337 30.8383335,27.9916665 30.795,28.035 C30.7516665,28.0783335 30.6933337,28.1 30.62,28.1 L29.77,28.1 Z M33.33,25.92 L33.33,22.87 L31.87,22.87 L31.87,23.54 C31.87,24.6866724 31.7166682,25.4833311 31.41,25.93 L33.33,25.92 Z M38.26,27.1 C37.726664,27.1 37.2950017,27.0200008 36.965,26.86 C36.6349984,26.6999992 36.3950008,26.5083344 36.245,26.285 C36.0949993,26.0616656 36.0100001,25.8366678 35.99,25.61 L35.99,25.6 C35.99,25.5533331 36.0083332,25.5133335 36.045,25.48 C36.0816669,25.4466665 36.1266664,25.43 36.18,25.43 L37.01,25.43 C37.1300006,25.43 37.2166664,25.4866661 37.27,25.6 C37.3300003,25.7866676 37.4466658,25.9216662 37.62,26.005 C37.7933342,26.0883338 38.0233319,26.13 38.31,26.13 C38.5966681,26.13 38.8283325,26.0733339 39.005,25.96 C39.1816676,25.8466661 39.27,25.6766678 39.27,25.45 C39.27,25.0033311 39.0000027,24.78 38.46,24.78 L37.91,24.78 C37.843333,24.78 37.7900002,24.7583335 37.75,24.715 C37.7099998,24.6716664 37.69,24.6200003 37.69,24.56 L37.69,24.13 C37.69,24.0699997 37.7099998,24.0183336 37.75,23.975 C37.7900002,23.9316665 37.843333,23.91 37.91,23.91 L38.42,23.91 C38.6600012,23.91 38.8399994,23.8650005 38.96,23.775 C39.0800006,23.6849996 39.14,23.5433343 39.14,23.35 C39.14,23.1566657 39.0683341,22.9966673 38.925,22.87 C38.781666,22.7433327 38.5600015,22.68 38.26,22.68 C37.9599985,22.68 37.7416674,22.7266662 37.605,22.82 C37.4683327,22.9133338 37.366667,23.0633323 37.3,23.27 C37.2466664,23.3833339 37.1600006,23.44 37.04,23.44 L36.24,23.44 C36.1866664,23.44 36.1400002,23.4216669 36.1,23.385 C36.0599998,23.3483331 36.0433333,23.3066669 36.05,23.26 C36.0633334,22.993332 36.1483325,22.7416678 36.305,22.505 C36.4616675,22.2683321 36.7033317,22.0750008 37.03,21.925 C37.3566683,21.7749993 37.7666642,21.7 38.26,21.7 C39.0000037,21.7 39.5449983,21.8433319 39.895,22.13 C40.2450018,22.4166681 40.42,22.7633313 40.42,23.17 C40.42,23.4300013 40.3716672,23.6466658 40.275,23.82 C40.1783329,23.9933342 40.0166678,24.1366661 39.79,24.25 C40.323336,24.450001 40.59,24.8866633 40.59,25.56 C40.59,26.0466691 40.3800021,26.4249986 39.96,26.695 C39.5399979,26.9650014 38.9733369,27.1 38.26,27.1 Z M43.93,27.1 C43.1433294,27.1 42.5366688,26.900002 42.11,26.5 C41.6833312,26.099998 41.4533335,25.5466702 41.42,24.84 L41.41,24.4 L41.42,23.96 C41.4533335,23.2599965 41.6866645,22.7083353 42.12,22.305 C42.5533355,21.9016647 43.1566628,21.7 43.93,21.7 C44.6966705,21.7 45.2966645,21.9016647 45.73,22.305 C46.1633355,22.7083353 46.3966665,23.2599965 46.43,23.96 C46.4366667,24.0400004 46.44,24.1866656 46.44,24.4 C46.44,24.6133344 46.4366667,24.7599996 46.43,24.84 C46.3966665,25.5466702 46.1666688,26.099998 45.74,26.5 C45.3133312,26.900002 44.7100039,27.1 43.93,27.1 Z M43.93,26.09 C44.2833351,26.09 44.554999,25.9800011 44.745,25.76 C44.935001,25.5399989 45.0366666,25.2166688 45.05,24.79 C45.0566667,24.723333 45.06,24.5933343 45.06,24.4 C45.06,24.2066657 45.0566667,24.076667 45.05,24.01 C45.0366666,23.5833312 44.9333343,23.2583344 44.74,23.035 C44.5466657,22.8116656 44.2766684,22.7 43.93,22.7 C43.5766649,22.7 43.3033343,22.8116656 43.11,23.035 C42.9166657,23.2583344 42.8133334,23.5833312 42.8,24.01 L42.79,24.4 L42.8,24.79 C42.8133334,25.2166688 42.9166657,25.5399989 43.11,25.76 C43.3033343,25.9800011 43.5766649,26.09 43.93,26.09 Z M47.8,28.9 C47.733333,28.9 47.6766669,28.8783336 47.63,28.835 C47.5833331,28.7916665 47.56,28.7333337 47.56,28.66 L47.56,22.04 C47.56,21.9666663 47.5833331,21.9083336 47.63,21.865 C47.6766669,21.8216665 47.733333,21.8 47.8,21.8 L48.6,21.8 C48.6733337,21.8 48.7333331,21.8233331 48.78,21.87 C48.8266669,21.9166669 48.85,21.973333 48.85,22.04 L48.85,22.44 C49.2033351,21.9466642 49.7333298,21.7 50.44,21.7 C51.1133367,21.7 51.6299982,21.9116646 51.99,22.335 C52.3500018,22.7583355 52.5433332,23.3266631 52.57,24.04 C52.5766667,24.1200004 52.58,24.2399992 52.58,24.4 C52.58,24.5600008 52.5766667,24.6799996 52.57,24.76 C52.5499999,25.4600035 52.3583352,26.0249979 51.995,26.455 C51.6316649,26.8850022 51.1133367,27.1 50.44,27.1 C49.77333,27.1 49.2633351,26.8633357 48.91,26.39 L48.91,28.66 C48.91,28.7333337 48.8883335,28.7916665 48.845,28.835 C48.8016664,28.8783336 48.7433337,28.9 48.67,28.9 L47.8,28.9 Z M50.06,26.02 C50.7733369,26.02 51.1533331,25.5800044 51.2,24.7 C51.2066667,24.633333 51.21,24.533334 51.21,24.4 C51.21,24.266666 51.2066667,24.166667 51.2,24.1 C51.1533331,23.2199956 50.7733369,22.78 50.06,22.78 C49.6799981,22.78 49.3966676,22.9033321 49.21,23.15 C49.0233324,23.3966679 48.9233334,23.6966649 48.91,24.05 C48.9033333,24.1300004 48.9,24.2566658 48.9,24.43 C48.9,24.6033342 48.9033333,24.7333329 48.91,24.82 C48.9233334,25.153335 49.0266657,25.4366655 49.22,25.67 C49.4133343,25.9033345 49.6933315,26.02 50.06,26.02 Z M53.93,27 C53.863333,27 53.8066669,26.9766669 53.76,26.93 C53.7133331,26.8833331 53.69,26.826667 53.69,26.76 L53.69,22.04 C53.69,21.9666663 53.7133331,21.9083336 53.76,21.865 C53.8066669,21.8216665 53.863333,21.8 53.93,21.8 L54.78,21.8 C54.846667,21.8 54.9033331,21.8233331 54.95,21.87 C54.9966669,21.9166669 55.02,21.973333 55.02,22.04 L55.02,23.82 L57.25,23.82 L57.25,22.04 C57.25,21.973333 57.2733331,21.9166669 57.32,21.87 C57.3666669,21.8233331 57.423333,21.8 57.49,21.8 L58.34,21.8 C58.4133337,21.8 58.4716665,21.8216665 58.515,21.865 C58.5583336,21.9083336 58.58,21.9666663 58.58,22.04 L58.58,26.76 C58.58,26.826667 58.5583336,26.8833331 58.515,26.93 C58.4716665,26.9766669 58.4133337,27 58.34,27 L57.49,27 C57.423333,27 57.3666669,26.9766669 57.32,26.93 C57.2733331,26.8833331 57.25,26.826667 57.25,26.76 L57.25,24.89 L55.02,24.89 L55.02,26.76 C55.02,26.826667 54.9966669,26.8833331 54.95,26.93 C54.9033331,26.9766669 54.846667,27 54.78,27 L53.93,27 Z M60.17,27 C60.103333,27 60.0466669,26.9766669 60,26.93 C59.9533331,26.8833331 59.93,26.826667 59.93,26.76 L59.93,22.04 C59.93,21.9666663 59.9533331,21.9083336 60,21.865 C60.0466669,21.8216665 60.103333,21.8 60.17,21.8 L61.02,21.8 C61.0933337,21.8 61.1516665,21.8216665 61.195,21.865 C61.2383336,21.9083336 61.26,21.9666663 61.26,22.04 L61.26,23.44 L62.24,23.44 C62.9000033,23.44 63.4033316,23.5999984 63.75,23.92 C64.0966684,24.2400016 64.27,24.6833305 64.27,25.25 C64.27,25.8300029 64.0900018,26.2666652 63.73,26.56 C63.3699982,26.8533348 62.8433368,27 62.15,27 L60.17,27 Z M65.18,27 C65.113333,27 65.0566669,26.9766669 65.01,26.93 C64.9633331,26.8833331 64.94,26.826667 64.94,26.76 L64.94,22.04 C64.94,21.9666663 64.9633331,21.9083336 65.01,21.865 C65.0566669,21.8216665 65.113333,21.8 65.18,21.8 L66.03,21.8 C66.096667,21.8 66.1533331,21.8233331 66.2,21.87 C66.2466669,21.9166669 66.27,21.973333 66.27,22.04 L66.27,26.76 C66.27,26.826667 66.2466669,26.8833331 66.2,26.93 C66.1533331,26.9766669 66.096667,27 66.03,27 L65.18,27 Z M62.12,26.04 C62.453335,26.04 62.6949993,25.9800006 62.845,25.86 C62.9950008,25.7399994 63.07,25.5366681 63.07,25.25 C63.07,24.9633319 62.9933341,24.7500007 62.84,24.61 C62.6866659,24.4699993 62.4466683,24.4 62.12,24.4 L61.24,24.4 L61.24,26.04 L62.12,26.04 Z M67.39,27 C67.3299997,27 67.2783335,26.9783336 67.235,26.935 C67.1916664,26.8916665 67.17,26.8400003 67.17,26.78 C67.17,26.7199997 67.1899998,26.6633336 67.23,26.61 L68.94,24.33 L67.36,22.19 C67.3199998,22.1366664 67.3,22.0800003 67.3,22.02 C67.3,21.9599997 67.3216665,21.9083336 67.365,21.865 C67.4083336,21.8216665 67.4599997,21.8 67.52,21.8 L68.4,21.8 C68.4733337,21.8 68.5283332,21.8149998 68.565,21.845 C68.6016669,21.8750002 68.6399998,21.9166664 68.68,21.97 L69.8,23.46 L70.91,21.97 C70.9166667,21.9633333 70.9416664,21.9333336 70.985,21.88 C71.0283335,21.8266664 71.0966662,21.8 71.19,21.8 L72.04,21.8 C72.1000003,21.8 72.1499998,21.8216665 72.19,21.865 C72.2300002,21.9083336 72.25,21.9566664 72.25,22.01 C72.25,22.076667 72.2300002,22.1366664 72.19,22.19 L70.59,24.34 L72.31,26.61 C72.3500002,26.6633336 72.37,26.7199997 72.37,26.78 C72.37,26.8400003 72.3483336,26.8916665 72.305,26.935 C72.2616665,26.9783336 72.2100003,27 72.15,27 L71.23,27 C71.1233328,27 71.0333337,26.9466672 70.96,26.84 L69.76,25.26 L68.55,26.84 C68.4766663,26.9466672 68.3866672,27 68.28,27 L67.39,27 Z M77.85,27.1 C77.0633294,27.1 76.4566688,26.900002 76.03,26.5 C75.6033312,26.099998 75.3733335,25.5466702 75.34,24.84 L75.33,24.4 L75.34,23.96 C75.3733335,23.2599965 75.6066645,22.7083353 76.04,22.305 C76.4733355,21.9016647 77.0766628,21.7 77.85,21.7 C78.6166705,21.7 79.2166645,21.9016647 79.65,22.305 C80.0833355,22.7083353 80.3166665,23.2599965 80.35,23.96 C80.3566667,24.0400004 80.36,24.1866656 80.36,24.4 C80.36,24.6133344 80.3566667,24.7599996 80.35,24.84 C80.3166665,25.5466702 80.0866688,26.099998 79.66,26.5 C79.2333312,26.900002 78.6300039,27.1 77.85,27.1 Z M77.85,26.09 C78.2033351,26.09 78.4749991,25.9800011 78.665,25.76 C78.855001,25.5399989 78.9566666,25.2166688 78.97,24.79 C78.9766667,24.723333 78.98,24.5933343 78.98,24.4 C78.98,24.2066657 78.9766667,24.076667 78.97,24.01 C78.9566666,23.5833312 78.8533343,23.2583344 78.66,23.035 C78.4666657,22.8116656 78.1966684,22.7 77.85,22.7 C77.4966649,22.7 77.2233343,22.8116656 77.03,23.035 C76.8366657,23.2583344 76.7333334,23.5833312 76.72,24.01 L76.71,24.4 L76.72,24.79 C76.7333334,25.2166688 76.8366657,25.5399989 77.03,25.76 C77.2233343,25.9800011 77.4966649,26.09 77.85,26.09 Z M81.72,28.9 C81.653333,28.9 81.5966669,28.8783336 81.55,28.835 C81.5033331,28.7916665 81.48,28.7333337 81.48,28.66 L81.48,22.04 C81.48,21.9666663 81.5033331,21.9083336 81.55,21.865 C81.5966669,21.8216665 81.653333,21.8 81.72,21.8 L82.52,21.8 C82.5933337,21.8 82.6533331,21.8233331 82.7,21.87 C82.7466669,21.9166669 82.77,21.973333 82.77,22.04 L82.77,22.44 C83.1233351,21.9466642 83.6533298,21.7 84.36,21.7 C85.0333367,21.7 85.5499982,21.9116646 85.91,22.335 C86.2700018,22.7583355 86.4633332,23.3266631 86.49,24.04 C86.4966667,24.1200004 86.5,24.2399992 86.5,24.4 C86.5,24.5600008 86.4966667,24.6799996 86.49,24.76 C86.4699999,25.4600035 86.2783352,26.0249979 85.915,26.455 C85.5516649,26.8850022 85.0333367,27.1 84.36,27.1 C83.69333,27.1 83.1833351,26.8633357 82.83,26.39 L82.83,28.66 C82.83,28.7333337 82.8083336,28.7916665 82.765,28.835 C82.7216665,28.8783336 82.6633337,28.9 82.59,28.9 L81.72,28.9 Z M83.98,26.02 C84.6933369,26.02 85.0733331,25.5800044 85.12,24.7 C85.1266667,24.633333 85.13,24.533334 85.13,24.4 C85.13,24.266666 85.1266667,24.166667 85.12,24.1 C85.0733331,23.2199956 84.6933369,22.78 83.98,22.78 C83.5999981,22.78 83.3166676,22.9033321 83.13,23.15 C82.9433324,23.3966679 82.8433334,23.6966649 82.83,24.05 C82.8233333,24.1300004 82.82,24.2566658 82.82,24.43 C82.82,24.6033342 82.8233333,24.7333329 82.83,24.82 C82.8433334,25.153335 82.9466657,25.4366655 83.14,25.67 C83.3333343,25.9033345 83.6133315,26.02 83.98,26.02 Z M87.85,27 C87.783333,27 87.7266669,26.9766669 87.68,26.93 C87.6333331,26.8833331 87.61,26.826667 87.61,26.76 L87.61,22.04 C87.61,21.9666663 87.6333331,21.9083336 87.68,21.865 C87.7266669,21.8216665 87.783333,21.8 87.85,21.8 L91.02,21.8 C91.0933337,21.8 91.1516664,21.8216665 91.195,21.865 C91.2383336,21.9083336 91.26,21.9666663 91.26,22.04 L91.26,22.63 C91.26,22.696667 91.2383336,22.7533331 91.195,22.8 C91.1516664,22.8466669 91.0933337,22.87 91.02,22.87 L88.94,22.87 L88.94,26.76 C88.94,26.826667 88.9166669,26.8833331 88.87,26.93 C88.8233331,26.9766669 88.766667,27 88.7,27 L87.85,27 Z M93.58,27.1 C93.2399983,27.1 92.9283347,27.0316673 92.645,26.895 C92.3616653,26.7583326 92.1383341,26.5733345 91.975,26.34 C91.8116658,26.1066655 91.73,25.8500014 91.73,25.57 C91.73,25.1166644 91.9133315,24.7500014 92.28,24.47 C92.6466685,24.1899986 93.1499968,24.0000005 93.79,23.9 L95.16,23.7 L95.16,23.49 C95.16,23.2033319 95.0866674,22.9866674 94.94,22.84 C94.7933326,22.6933326 94.5600016,22.62 94.24,22.62 C94.0199989,22.62 93.843334,22.6599996 93.71,22.74 C93.576666,22.8200004 93.4683337,22.9016662 93.385,22.985 L93.22,23.15 C93.1933332,23.2300004 93.1433337,23.27 93.07,23.27 L92.29,23.27 C92.2299997,23.27 92.1783335,23.2500002 92.135,23.21 C92.0916664,23.1699998 92.07,23.116667 92.07,23.05 C92.0766667,22.8833325 92.1583325,22.6950011 92.315,22.485 C92.4716674,22.274999 92.7133317,22.0916675 93.04,21.935 C93.3666683,21.7783326 93.7699976,21.7 94.25,21.7 C95.0366706,21.7 95.6099982,21.8766649 95.97,22.23 C96.3300018,22.5833351 96.51,23.0466638 96.51,23.62 L96.51,26.76 C96.51,26.826667 96.4883335,26.8833331 96.445,26.93 C96.4016664,26.9766669 96.3433337,27 96.27,27 L95.44,27 C95.373333,27 95.3166669,26.9766669 95.27,26.93 C95.2233331,26.8833331 95.2,26.826667 95.2,26.76 L95.2,26.37 C95.0533326,26.5833344 94.846668,26.7583326 94.58,26.895 C94.313332,27.0316673 93.980002,27.1 93.58,27.1 Z M93.92,26.14 C94.2866685,26.14 94.5866655,26.0200012 94.82,25.78 C95.0533345,25.5399988 95.17,25.1933356 95.17,24.74 L95.17,24.54 L94.17,24.7 C93.4033295,24.8200006 93.02,25.0766647 93.02,25.47 C93.02,25.6833344 93.1083324,25.8483328 93.285,25.965 C93.4616676,26.0816672 93.6733321,26.14 93.92,26.14 Z M98.03,27 C97.963333,27 97.9066669,26.9766669 97.86,26.93 C97.8133331,26.8833331 97.79,26.826667 97.79,26.76 L97.79,22.04 C97.79,21.9666663 97.8133331,21.9083336 97.86,21.865 C97.9066669,21.8216665 97.963333,21.8 98.03,21.8 L98.88,21.8 C98.946667,21.8 99.0033331,21.8233331 99.05,21.87 C99.0966669,21.9166669 99.12,21.973333 99.12,22.04 L99.12,23.82 L101.35,23.82 L101.35,22.04 C101.35,21.973333 101.373333,21.9166669 101.42,21.87 C101.466667,21.8233331 101.523333,21.8 101.59,21.8 L102.44,21.8 C102.513334,21.8 102.571666,21.8216665 102.615,21.865 C102.658334,21.9083336 102.68,21.9666663 102.68,22.04 L102.68,26.76 C102.68,26.826667 102.658334,26.8833331 102.615,26.93 C102.571666,26.9766669 102.513334,27 102.44,27 L101.59,27 C101.523333,27 101.466667,26.9766669 101.42,26.93 C101.373333,26.8833331 101.35,26.826667 101.35,26.76 L101.35,24.89 L99.12,24.89 L99.12,26.76 C99.12,26.826667 99.0966669,26.8833331 99.05,26.93 C99.0033331,26.9766669 98.946667,27 98.88,27 L98.03,27 Z M106.34,27.1 C105.553329,27.1 104.946669,26.900002 104.52,26.5 C104.093331,26.099998 103.863333,25.5466702 103.83,24.84 L103.82,24.4 L103.83,23.96 C103.863333,23.2599965 104.096665,22.7083353 104.53,22.305 C104.963335,21.9016647 105.566663,21.7 106.34,21.7 C107.10667,21.7 107.706664,21.9016647 108.14,22.305 C108.573335,22.7083353 108.806667,23.2599965 108.84,23.96 C108.846667,24.0400004 108.85,24.1866656 108.85,24.4 C108.85,24.6133344 108.846667,24.7599996 108.84,24.84 C108.806667,25.5466702 108.576669,26.099998 108.15,26.5 C107.723331,26.900002 107.120004,27.1 106.34,27.1 Z M106.34,26.09 C106.693335,26.09 106.964999,25.9800011 107.155,25.76 C107.345001,25.5399989 107.446667,25.2166688 107.46,24.79 C107.466667,24.723333 107.47,24.5933343 107.47,24.4 C107.47,24.2066657 107.466667,24.076667 107.46,24.01 C107.446667,23.5833312 107.343334,23.2583344 107.15,23.035 C106.956666,22.8116656 106.686668,22.7 106.34,22.7 C105.986665,22.7 105.713334,22.8116656 105.52,23.035 C105.326666,23.2583344 105.223333,23.5833312 105.21,24.01 L105.2,24.4 L105.21,24.79 C105.223333,25.2166688 105.326666,25.5399989 105.52,25.76 C105.713334,25.9800011 105.986665,26.09 106.34,26.09 Z M110.2,27 C110.133333,27 110.076667,26.9766669 110.03,26.93 C109.983333,26.8833331 109.96,26.826667 109.96,26.76 L109.96,22.04 C109.96,21.9666663 109.983333,21.9083336 110.03,21.865 C110.076667,21.8216665 110.133333,21.8 110.2,21.8 L112.42,21.8 C113.113337,21.8 113.634998,21.9266654 113.985,22.18 C114.335002,22.4333346 114.51,22.7866644 114.51,23.24 C114.51,23.506668 114.46,23.7183325 114.36,23.875 C114.259999,24.0316675 114.110001,24.1699994 113.91,24.29 C114.143334,24.3966672 114.324999,24.5566656 114.455,24.77 C114.585001,24.9833344 114.65,25.223332 114.65,25.49 C114.65,25.9766691 114.470002,26.3499987 114.11,26.61 C113.749998,26.8700013 113.223337,27 112.53,27 L110.2,27 Z M112.4,23.92 C112.666668,23.92 112.876666,23.8633339 113.03,23.75 C113.183334,23.6366661 113.26,23.4766677 113.26,23.27 C113.26,23.069999 113.186667,22.9266671 113.04,22.84 C112.893333,22.7533329 112.680001,22.71 112.4,22.71 L111.25,22.71 L111.25,23.92 L112.4,23.92 Z M112.45,26.09 C112.723335,26.09 112.936666,26.0400005 113.09,25.94 C113.243334,25.8399995 113.32,25.6866677 113.32,25.48 C113.32,25.2599989 113.248334,25.1016672 113.105,25.005 C112.961666,24.9083329 112.743335,24.86 112.45,24.86 L111.25,24.86 L111.25,26.09 L112.45,26.09 Z" id="ЛК-надзорных-органов" fill="#185DD3"></path>
            </g>
            <g id="crcp_icn">
                <polygon id="Path" fill="url(#linearGradient-1)" points="32.4407352 12.1935484 6.09677419 54 27.9193548 48.9832258 41.8064516 27.0116129"></polygon>
                <polygon id="Path" fill="url(#linearGradient-2)" points="32.4407352 12.1935484 6.09677419 54 41.8064516 27.0116129"></polygon>
                <polygon id="Path" fill="url(#linearGradient-3)" points="32.4407352 41.8064516 6.09677419 0 27.9193548 5.01677419 41.8064516 26.9883871"></polygon>
                <polygon id="Path" fill="url(#linearGradient-4)" points="6.09677419 0 27.9193548 5.01893287 41.8064516 27"></polygon>
                <polygon id="Path" fill="url(#linearGradient-5)" points="29.6129032 36.561533 32.998234 41.8064516 42.6774194 27"></polygon>
                <polygon id="Path" fill="url(#linearGradient-6)" points="17.3350121 17.4193548 0 45.2903226 14.3606401 41.9249506 23.516129 27.2784727"></polygon>
                <polygon id="Path" fill="url(#linearGradient-7)" points="17.3350121 17.4193548 0 45.2903226 23.516129 27.2784727"></polygon>
                <polygon id="Path" fill="url(#linearGradient-8)" points="17.3350121 37.4516129 0 9.58064516 14.3606401 12.9460171 23.516129 27.5924951"></polygon>
                <polygon id="Path" fill="url(#linearGradient-9)" points="0 9.58064516 14.3606401 12.8353141 23.516129 27"></polygon>
                <polygon id="Path" fill="url(#linearGradient-10)" points="14.8064516 33.1721464 17.0446927 36.5806452 23.516129 27"></polygon>
            </g>
        </g>
    </g>
</svg>
