
<svg width="180px" height="54px" viewBox="0 0 180 54" version="1.1" xmlns="http://www.w3.org/2000/svg" xmlns:xlink="http://www.w3.org/1999/xlink">
    <defs>
        <linearGradient x1="-7.11976744%" y1="91.9844444%" x2="91.1143411%" y2="28.8325556%" id="linearGradient-1">
            <stop stop-color="#5697DC" offset="0%"></stop>
            <stop stop-color="#4B83BC" offset="37.4%"></stop>
            <stop stop-color="#41709C" offset="69.83%"></stop>
        </linearGradient>
        <linearGradient x1="6.57984496%" y1="100.047222%" x2="68.6357881%" y2="36.4455556%" id="linearGradient-2">
            <stop stop-color="#5EA4F3" offset="0%"></stop>
            <stop stop-color="#5899E0" offset="31.06%"></stop>
            <stop stop-color="#497EAF" offset="93.72%"></stop>
            <stop stop-color="#477BAA" offset="100%"></stop>
        </linearGradient>
        <linearGradient x1="10.194186%" y1="-5.516%" x2="84.5992248%" y2="74.3647778%" id="linearGradient-3">
            <stop stop-color="#386391" offset="0%"></stop>
            <stop stop-color="#335786" offset="73.51%"></stop>
            <stop stop-color="#315181" offset="100%"></stop>
        </linearGradient>
        <linearGradient x1="9.87739018%" y1="-11.4299484%" x2="107.139018%" y2="86.0719449%" id="linearGradient-4">
            <stop stop-color="#4B84AF" offset="22.35%"></stop>
            <stop stop-color="#355886" offset="100%"></stop>
        </linearGradient>
        <linearGradient x1="102.916423%" y1="3.08746082%" x2="14.9956204%" y2="80.3755486%" id="linearGradient-5">
            <stop stop-color="#42729E" offset="0%"></stop>
            <stop stop-color="#3B608F" offset="32.88%"></stop>
            <stop stop-color="#2D3F72" offset="100%"></stop>
        </linearGradient>
        <linearGradient x1="-9.47035573%" y1="87.5120748%" x2="55.2747036%" y2="50.8727891%" id="linearGradient-6">
            <stop stop-color="#CFE135" offset="0%"></stop>
            <stop stop-color="#BAD433" offset="22.23%"></stop>
            <stop stop-color="#90B930" offset="73.73%"></stop>
            <stop stop-color="#7FAE2F" offset="100%"></stop>
        </linearGradient>
        <linearGradient x1="-4.24525692%" y1="96.0884354%" x2="83.7235178%" y2="20.387415%" id="linearGradient-7">
            <stop stop-color="#D9E636" offset="40.22%"></stop>
            <stop stop-color="#C7DB36" offset="48.83%"></stop>
            <stop stop-color="#9ABF35" offset="65.93%"></stop>
            <stop stop-color="#68A135" offset="82.48%"></stop>
        </linearGradient>
        <linearGradient x1="7.70197628%" y1="-2.33571429%" x2="83.3551383%" y2="71.5484694%" id="linearGradient-8">
            <stop stop-color="#95BD49" offset="0%"></stop>
            <stop stop-color="#4C8645" offset="100%"></stop>
        </linearGradient>
        <linearGradient x1="9.8958498%" y1="-11.3547368%" x2="107.137154%" y2="86.0821053%" id="linearGradient-9">
            <stop stop-color="#C9D542" offset="0%"></stop>
            <stop stop-color="#92B447" offset="42.94%"></stop>
            <stop stop-color="#679A4B" offset="80.74%"></stop>
            <stop stop-color="#57904D" offset="100%"></stop>
        </linearGradient>
        <linearGradient x1="5.27932961%" y1="50.0745192%" x2="104.991061%" y2="50.0745192%" id="linearGradient-10">
            <stop stop-color="#365F19" offset="0%"></stop>
            <stop stop-color="#427428" offset="68.1%"></stop>
            <stop stop-color="#487F30" offset="100%"></stop>
        </linearGradient>
    </defs>
    <g id="Page-1" stroke="none" stroke-width="1" fill="none" fill-rule="evenodd">
        <g id="logo-copy">
            <g id="Group-2" transform="translate(55.000000, 12.000000)">
                <g id="Group" transform="translate(51.000000, 0.000000)">
                    <path d="M64.9989203,16.3203 L2.22592031,16.3203 C0.98992031,16.3203 -0.0350796898,15.2958 0.000920310165,14.0241 L0.000920310165,2.1549 C0.0359203102,0.9538 1.02492031,0 2.22592031,0 L71.3219203,0 C72.9829203,0 74.0779203,1.7663 73.2649203,3.2499 L66.9419203,15.1545 C66.5529203,15.861 65.8119203,16.3203 64.9989203,16.3203 Z" id="Path" fill="#185DD3"></path>
                    <path d="M6.12125,7.2146 C6.12125,7.5679 6.08625,7.8858 6.08625,8.2037 C6.08625,8.5217 6.08625,8.8396 6.12125,9.1928 C6.15625,9.8287 6.33325,10.3586 6.72225,10.7471 C7.07525,11.1357 7.60525,11.3477 8.31125,11.3477 C8.70025,11.3477 8.98225,11.3123 9.26525,11.2064 C9.51225,11.1004 9.72425,10.9944 9.90125,10.8531 C10.07725,10.7118 10.18325,10.5352 10.28925,10.3586 C10.39525,10.1819 10.43125,9.97 10.50125,9.7934 C10.50125,9.7227 10.57225,9.6521 10.60725,9.6167 C10.67825,9.5814 10.74925,9.5461 10.78425,9.5461 L11.31425,9.5461 C11.38425,9.5461 11.45525,9.5814 11.49025,9.6167 C11.52625,9.6521 11.56125,9.7227 11.56125,9.7934 C11.56125,10.0406 11.49025,10.3232 11.34925,10.6412 C11.20825,10.9591 11.03125,11.2417 10.78425,11.489 C10.53725,11.7716 10.18325,11.9835 9.79525,12.1602 C9.37125,12.3368 8.87625,12.4427 8.31125,12.4427 C7.81725,12.4427 7.35725,12.3721 6.96925,12.1955 C6.58025,12.0189 6.22725,11.8069 5.94425,11.5243 C5.66225,11.2417 5.45025,10.9238 5.27325,10.5352 C5.13225,10.1466 5.02625,9.7227 5.02625,9.2635 C4.99125,8.557 4.99125,7.8858 5.02625,7.1793 C5.02625,6.7201 5.13225,6.2962 5.27325,5.9076 C5.41425,5.519 5.66225,5.2011 5.94425,4.9185 C6.22725,4.6359 6.58025,4.4239 6.96925,4.2473 C7.35725,4.0707 7.81725,4 8.31125,4 C8.87625,4 9.37125,4.106 9.79525,4.2826 C10.21925,4.4593 10.53725,4.6712 10.78425,4.9538 C11.03125,5.2364 11.24325,5.519 11.34925,5.8016 C11.49025,6.1196 11.52625,6.3668 11.56125,6.6494 C11.56125,6.7201 11.52625,6.7907 11.49025,6.8261 C11.45525,6.8614 11.38425,6.8967 11.31425,6.8967 L10.78425,6.8967 C10.71325,6.8967 10.64325,6.8614 10.60725,6.8261 C10.53725,6.7907 10.50125,6.7201 10.50125,6.6494 C10.46625,6.4728 10.39525,6.2608 10.28925,6.0842 C10.18325,5.9076 10.07725,5.731 9.90125,5.5897 C9.72425,5.4484 9.51225,5.3071 9.26525,5.2364 C9.01825,5.1304 8.70025,5.0951 8.31125,5.0951 C7.60525,5.0951 7.07525,5.3071 6.72225,5.6957 C6.36825,6.0489 6.15625,6.5788 6.12125,7.2146 Z" id="Path" fill="#FFFFFF"></path>
                    <path d="M13.318,12.1601 C13.248,12.1601 13.142,12.1248 13.106,12.0541 C13.036,11.9835 13,11.9128 13,11.8422 L13,4.3179 C13,4.2473 13.036,4.1413 13.106,4.106 C13.177,4.0353 13.248,4 13.318,4 L13.813,4 C13.884,4 13.99,4.0353 14.025,4.106 C14.096,4.1766 14.131,4.2473 14.131,4.3179 L14.131,10.0406 L17.911,4.3532 C17.981,4.2826 18.017,4.1766 18.087,4.106 C18.158,4.0353 18.264,4 18.37,4 L18.794,4 C18.864,4 18.97,4.0353 19.006,4.106 C19.076,4.1766 19.112,4.2473 19.112,4.3179 L19.112,11.8422 C19.112,11.9128 19.076,12.0188 19.006,12.0541 C18.935,12.1248 18.864,12.1601 18.794,12.1601 L18.299,12.1601 C18.229,12.1601 18.123,12.1248 18.087,12.0541 C18.017,11.9835 17.981,11.9128 17.981,11.8422 L17.981,6.1195 L14.202,11.8068 C14.131,11.8775 14.096,11.9835 14.025,12.0541 C13.954,12.1248 13.848,12.1601 13.742,12.1601 L13.318,12.1601 Z" id="Path" fill="#FFFFFF"></path>
                    <path d="M22.12125,7.2146 C22.12125,7.5679 22.08625,7.8858 22.08625,8.2037 C22.08625,8.5217 22.08625,8.8396 22.12125,9.1928 C22.15725,9.8287 22.33325,10.3586 22.72225,10.7471 C23.07525,11.1357 23.60525,11.3477 24.31125,11.3477 C24.70025,11.3477 24.98325,11.3123 25.26525,11.2064 C25.51325,11.1004 25.72425,10.9944 25.90125,10.8531 C26.07825,10.7118 26.18425,10.5352 26.29025,10.3586 C26.39625,10.1819 26.43125,9.97 26.50225,9.7934 C26.50225,9.7227 26.57225,9.6521 26.60825,9.6167 C26.67825,9.5814 26.74925,9.5461 26.78425,9.5461 L27.31425,9.5461 C27.38525,9.5461 27.45525,9.5814 27.49125,9.6167 C27.52625,9.6521 27.56125,9.7227 27.56125,9.7934 C27.56125,10.0406 27.49125,10.3232 27.34925,10.6412 C27.20825,10.9591 27.03225,11.2417 26.78425,11.489 C26.53725,11.7716 26.18425,11.9835 25.79525,12.1602 C25.37125,12.3368 24.87725,12.4427 24.31125,12.4427 C23.81725,12.4427 23.35825,12.3721 22.96925,12.1955 C22.58125,12.0189 22.22725,11.8069 21.94525,11.5243 C21.66225,11.2417 21.45025,10.9238 21.27425,10.5352 C21.13225,10.1466 21.02625,9.7227 21.02625,9.2635 C20.99125,8.557 20.99125,7.8858 21.02625,7.1793 C21.02625,6.7201 21.13225,6.2962 21.27425,5.9076 C21.41525,5.519 21.66225,5.2011 21.94525,4.9185 C22.22725,4.6359 22.58125,4.4239 22.96925,4.2473 C23.35825,4.0707 23.81725,4 24.31125,4 C24.87725,4 25.37125,4.106 25.79525,4.2826 C26.21925,4.4593 26.53725,4.6712 26.78425,4.9538 C27.03225,5.2364 27.24325,5.519 27.34925,5.8016 C27.49125,6.1196 27.52625,6.3668 27.56125,6.6494 C27.56125,6.7201 27.52625,6.7907 27.49125,6.8261 C27.45525,6.8614 27.38525,6.8967 27.31425,6.8967 L26.78425,6.8967 C26.71425,6.8967 26.64325,6.8614 26.60825,6.8261 C26.53725,6.7907 26.50225,6.7201 26.50225,6.6494 C26.46625,6.4728 26.39625,6.2608 26.29025,6.0842 C26.18425,5.9076 26.07825,5.731 25.90125,5.5897 C25.72425,5.4484 25.51325,5.3071 25.26525,5.2364 C25.01825,5.1304 24.70025,5.0951 24.31125,5.0951 C23.60525,5.0951 23.07525,5.3071 22.72225,5.6957 C22.33325,6.0489 22.15725,6.5788 22.12125,7.2146 Z" id="Path" fill="#FFFFFF"></path>
                    <path d="M33.829,4 C33.9,4 34.006,4.0353 34.041,4.106 C34.112,4.1766 34.147,4.2473 34.147,4.3179 L34.147,4.7418 C34.147,4.8125 34.112,4.9184 34.041,4.9538 C33.97,5.0244 33.9,5.0598 33.829,5.0598 L31.639,5.0598 L31.639,11.8422 C31.639,11.9128 31.604,12.0188 31.533,12.0541 C31.462,12.1248 31.392,12.1601 31.321,12.1601 L30.826,12.1601 C30.756,12.1601 30.65,12.1248 30.615,12.0541 C30.544,11.9835 30.509,11.9128 30.509,11.8422 L30.509,5.0598 L28.318,5.0598 C28.248,5.0598 28.142,5.0244 28.106,4.9538 C28.036,4.8831 28,4.8125 28,4.7418 L28,4.3179 C28,4.2473 28.036,4.1413 28.106,4.106 C28.177,4.0353 28.248,4 28.318,4 L33.829,4 Z" id="Path" fill="#FFFFFF"></path>
                    <path d="M41.017,11.1003 C41.087,11.1003 41.158,11.1357 41.229,11.2063 C41.299,11.277 41.335,11.3476 41.335,11.4183 L41.335,11.8422 C41.335,11.9128 41.299,12.0188 41.229,12.0541 C41.158,12.1248 41.087,12.1601 41.017,12.1601 L36.318,12.1601 C36.248,12.1601 36.142,12.1248 36.106,12.0541 C36.036,11.9835 36,11.9128 36,11.8422 L36,4.3179 C36,4.2473 36.036,4.1413 36.106,4.106 C36.177,4.0353 36.248,4 36.318,4 L40.946,4 C41.017,4 41.087,4.0353 41.158,4.106 C41.229,4.1766 41.264,4.2473 41.264,4.3179 L41.264,4.7418 C41.264,4.8125 41.229,4.9184 41.158,4.9538 C41.087,5.0244 41.017,5.0598 40.946,5.0598 L37.131,5.0598 L37.131,7.5325 L40.663,7.5325 C40.734,7.5325 40.84,7.5678 40.875,7.6385 C40.946,7.7091 40.981,7.7798 40.981,7.8504 L40.981,8.2743 C40.981,8.345 40.946,8.451 40.875,8.4863 C40.805,8.5569 40.734,8.5923 40.663,8.5923 L37.096,8.5923 L37.096,11.1357 L41.017,11.1357 L41.017,11.1003 Z" id="Path" fill="#FFFFFF"></path>
                    <path d="M45.674,8.9102 L48.04,4.3533 C48.076,4.2473 48.146,4.1767 48.217,4.106 C48.288,4.0354 48.394,4 48.535,4 L48.994,4 C49.065,4 49.171,4.0354 49.206,4.106 C49.241,4.1767 49.312,4.2473 49.312,4.318 L49.312,11.8422 C49.312,11.9129 49.277,12.0189 49.206,12.0542 C49.135,12.1248 49.065,12.1602 48.994,12.1602 L48.5,12.1602 C48.429,12.1602 48.323,12.1248 48.288,12.0542 C48.217,11.9835 48.182,11.9129 48.182,11.8422 L48.182,6.3315 L46.38,9.8287 C46.309,9.9347 46.239,10.0407 46.168,10.1113 C46.098,10.182 45.992,10.2173 45.886,10.2173 L45.426,10.2173 C45.32,10.2173 45.214,10.182 45.144,10.1113 C45.073,10.0407 45.002,9.97 44.932,9.8287 L43.13,6.3315 L43.13,11.8422 C43.13,11.9129 43.095,12.0189 43.024,12.0542 C42.954,12.1248 42.883,12.1602 42.812,12.1602 L42.318,12.1602 C42.247,12.1602 42.141,12.1248 42.106,12.0542 C42.035,11.9835 42,11.9129 42,11.8422 L42,4.318 C42,4.2473 42.035,4.1414 42.106,4.106 C42.176,4.0354 42.247,4 42.318,4 L42.777,4 C42.918,4 43.024,4.0354 43.095,4.106 C43.166,4.1767 43.236,4.2826 43.272,4.3533 L45.674,8.9102 Z" id="Path" fill="#FFFFFF"></path>
                    <path d="M56.758,10.3232 L52.731,10.3232 L52.131,11.8775 C52.096,11.9482 52.06,12.0188 51.99,12.0541 C51.919,12.1248 51.813,12.1601 51.672,12.1601 L51.248,12.1601 C51.177,12.1601 51.106,12.1248 51.071,12.0895 C51.036,12.0541 51,11.9835 51,11.9128 C51,11.8775 51,11.8069 51.036,11.7362 L53.897,4.3886 C53.932,4.3179 54.003,4.2119 54.074,4.1413 C54.144,4.0706 54.25,4 54.427,4 L55.134,4 C55.275,4 55.416,4.0353 55.487,4.1413 C55.557,4.2119 55.628,4.3179 55.663,4.3886 L58.489,11.7362 C58.525,11.8069 58.525,11.8775 58.525,11.9128 C58.525,11.9835 58.489,12.0541 58.454,12.0895 C58.419,12.1248 58.348,12.1601 58.277,12.1601 L57.854,12.1601 C57.712,12.1601 57.606,12.1248 57.536,12.0541 C57.465,11.9835 57.43,11.9128 57.394,11.8775 L56.758,10.3232 Z M53.12,9.2634 L56.335,9.2634 L54.745,5.0951 L53.12,9.2634 Z" id="Shape" fill="#FFFFFF" fill-rule="nonzero"></path>
                </g>
                <path d="M5.916,14.17 C4.35199218,14.17 3.14217094,13.770504 2.2865,12.9715 C1.43082905,12.172496 0.97466695,11.0363407 0.918,9.563 C0.90666661,9.25699847 0.901,8.75833679 0.901,8.067 C0.901,7.36432982 0.90666661,6.85433492 0.918,6.537 C0.97466695,5.08632608 1.43366236,3.95583739 2.295,3.1455 C3.15633764,2.33516262 4.36332557,1.93 5.916,1.93 C6.92467171,1.93 7.80299626,2.10283161 8.551,2.4485 C9.29900374,2.7941684 9.87983126,3.26733033 10.2935,3.868 C10.7071687,4.46866967 10.9253332,5.14299626 10.948,5.891 L10.948,5.925 C10.948,6.01566712 10.911167,6.09216636 10.8375,6.1545 C10.763833,6.21683365 10.6816671,6.248 10.591,6.248 L8.942,6.248 C8.80599932,6.248 8.70400034,6.21683365 8.636,6.1545 C8.56799966,6.09216636 8.51133356,5.98166746 8.466,5.823 C8.29599915,5.12032982 8.00133543,4.62450145 7.582,4.3355 C7.16266457,4.04649856 6.60733679,3.902 5.916,3.902 C4.29532523,3.902 3.45100034,4.8086576 3.383,6.622 C3.37166661,6.92800153 3.366,7.39833016 3.366,8.033 C3.366,8.66766984 3.37166661,9.14933169 3.383,9.478 C3.45100034,11.2913424 4.29532523,12.198 5.916,12.198 C6.5960034,12.198 7.14849787,12.0535014 7.5735,11.7645 C7.99850212,11.4754986 8.29599915,10.9796702 8.466,10.277 C8.51133356,10.1183325 8.56799966,10.0078336 8.636,9.9455 C8.70400034,9.88316636 8.80599932,9.852 8.942,9.852 L10.591,9.852 C10.6930005,9.852 10.780833,9.88599966 10.8545,9.954 C10.928167,10.0220003 10.9593334,10.1069995 10.948,10.209 C10.9253332,10.9570037 10.7071687,11.6313303 10.2935,12.232 C9.87983126,12.8326697 9.29900374,13.3058316 8.551,13.6515 C7.80299626,13.9971684 6.92467171,14.17 5.916,14.17 Z M17.561,14.17 C16.0083256,14.17 14.8013376,13.7790039 13.94,12.997 C13.0786624,12.2149961 12.6253336,11.053341 12.58,9.512 C12.5686666,9.18333169 12.563,8.70166984 12.563,8.067 C12.563,7.42099677 12.5686666,6.93366831 12.58,6.605 C12.6253336,5.09765913 13.0899956,3.94167069 13.974,3.137 C14.8580044,2.33232931 16.0536591,1.93 17.561,1.93 C19.0570075,1.93 20.2498289,2.33232931 21.1395,3.137 C22.0291711,3.94167069 22.4966664,5.09765913 22.542,6.605 C22.5646668,7.26233662 22.576,7.74966508 22.576,8.067 C22.576,8.37300153 22.5646668,8.85466338 22.542,9.512 C22.4966664,11.053341 22.0405043,12.2149961 21.1735,12.997 C20.3064957,13.7790039 19.102341,14.17 17.561,14.17 Z M17.561,12.198 C18.3203371,12.198 18.9209978,11.9713356 19.363,11.518 C19.8050022,11.0646644 20.0429998,10.3676714 20.077,9.427 C20.0996668,8.7469966 20.111,8.28800119 20.111,8.05 C20.111,7.78933203 20.0996668,7.33033662 20.077,6.673 C20.0429998,5.74366202 19.7993356,5.0495023 19.346,4.5905 C18.8926644,4.13149771 18.2976703,3.902 17.561,3.902 C16.8129963,3.902 16.2123356,4.13149771 15.759,4.5905 C15.3056644,5.0495023 15.0676668,5.74366202 15.045,6.673 C15.0336666,7.00166831 15.028,7.46066372 15.028,8.05 C15.028,8.62800289 15.0336666,9.0869983 15.045,9.427 C15.0676668,10.356338 15.3028311,11.0504977 15.7505,11.5095 C16.1981689,11.9685023 16.8016629,12.198 17.561,12.198 Z M25.194,14 C25.0806661,14 24.9843337,13.9603337 24.905,13.881 C24.8256663,13.8016663 24.786,13.7053339 24.786,13.592 L24.786,2.525 C24.786,2.40033271 24.822833,2.29833373 24.8965,2.219 C24.970167,2.13966627 25.0693327,2.1 25.194,2.1 L34.136,2.1 C34.2606673,2.1 34.359833,2.13966627 34.4335,2.219 C34.507167,2.29833373 34.544,2.40033271 34.544,2.525 L34.544,13.592 C34.544,13.7053339 34.507167,13.8016663 34.4335,13.881 C34.359833,13.9603337 34.2606673,14 34.136,14 L32.555,14 C32.4416661,14 32.3453337,13.9603337 32.266,13.881 C32.1866663,13.8016663 32.147,13.7053339 32.147,13.592 L32.147,4.259 L27.183,4.259 L27.183,13.592 C27.183,13.7053339 27.1433337,13.8016663 27.064,13.881 C26.9846663,13.9603337 26.8826673,14 26.758,14 L25.194,14 Z M40.222,14 C40.1086661,14 40.0123337,13.9603337 39.933,13.881 C39.8536663,13.8016663 39.814,13.7053339 39.814,13.592 L39.814,4.225 L36.669,4.225 C36.5556661,4.225 36.4593337,4.18533373 36.38,4.106 C36.3006663,4.02666627 36.261,3.92466729 36.261,3.8 L36.261,2.525 C36.261,2.40033271 36.297833,2.29833373 36.3715,2.219 C36.445167,2.13966627 36.5443327,2.1 36.669,2.1 L45.356,2.1 C45.4806673,2.1 45.5826663,2.13966627 45.662,2.219 C45.7413337,2.29833373 45.781,2.40033271 45.781,2.525 L45.781,3.8 C45.781,3.92466729 45.7413337,4.02666627 45.662,4.106 C45.5826663,4.18533373 45.4806673,4.225 45.356,4.225 L42.228,4.225 L42.228,13.592 C42.228,13.7053339 42.191167,13.8016663 42.1175,13.881 C42.043833,13.9603337 41.9446673,14 41.82,14 L40.222,14 Z" id="СОПТ" fill="#185DD3"></path>
                <path d="M6.41,25 C6.343333,25 6.2866669,24.9766669 6.24,24.93 C6.1933331,24.8833331 6.17,24.826667 6.17,24.76 L6.17,19.27 L4.01,19.27 L4.01,20.51 C4.01,21.6100055 3.93500075,22.4783302 3.785,23.115 C3.63499925,23.7516698 3.3800018,24.2183318 3.02,24.515 C2.6599982,24.8116682 2.1566699,24.9699999 1.51,24.99 C1.443333,24.9966667 1.38500025,24.9750003 1.335,24.925 C1.28499975,24.8749998 1.26,24.816667 1.26,24.75 L1.26,23.98 C1.26,23.913333 1.28166645,23.8600002 1.325,23.82 C1.36833355,23.7799998 1.423333,23.7533334 1.49,23.74 C1.8833353,23.6799997 2.17499905,23.3716694 2.365,22.815 C2.55500095,22.2583306 2.65,21.4300055 2.65,20.33 L2.65,18.24 C2.65,18.1666663 2.6733331,18.1083335 2.72,18.065 C2.7666669,18.0216664 2.823333,18 2.89,18 L7.33,18 C7.4033337,18 7.4633331,18.0233331 7.51,18.07 C7.5566669,18.1166669 7.58,18.1766663 7.58,18.25 L7.58,24.76 C7.58,24.826667 7.5566669,24.8833331 7.51,24.93 C7.4633331,24.9766669 7.4033337,25 7.33,25 L6.41,25 Z M14.74,24.66 C14.7600001,24.6866668 14.77,24.7233331 14.77,24.77 C14.77,24.8300003 14.7483336,24.8833331 14.705,24.93 C14.6616665,24.9766669 14.606667,25 14.54,25 L13.49,25 C13.356666,25 13.256667,24.9433339 13.19,24.83 L11.48,22.09 L10.54,22.09 L10.54,24.76 C10.54,24.826667 10.5166669,24.8833331 10.47,24.93 C10.4233331,24.9766669 10.3633337,25 10.29,25 L9.37,25 C9.303333,25 9.2466669,24.9766669 9.2,24.93 C9.1533331,24.8833331 9.13,24.826667 9.13,24.76 L9.13,18.25 C9.13,18.1766663 9.15166645,18.1166669 9.195,18.07 C9.23833355,18.0233331 9.2966663,18 9.37,18 L10.29,18 C10.3633337,18 10.4233331,18.0233331 10.47,18.07 C10.5166669,18.1166669 10.54,18.1766663 10.54,18.25 L10.54,20.82 L11.4,20.83 L13.01,18.18 C13.0833337,18.0599994 13.2033325,18 13.37,18 L14.39,18 C14.456667,18 14.5083332,18.0199998 14.545,18.06 C14.5816669,18.1000002 14.6,18.1499997 14.6,18.21 C14.6,18.2433335 14.5833335,18.2833331 14.55,18.33 L12.67,21.38 L14.74,24.66 Z M18.25,25 C18.183333,25 18.1266669,24.9766669 18.08,24.93 C18.0333331,24.8833331 18.01,24.826667 18.01,24.76 L18.01,20.04 C18.01,19.9666663 18.0333331,19.9083336 18.08,19.865 C18.1266669,19.8216665 18.183333,19.8 18.25,19.8 L22.54,19.8 C22.6133337,19.8 22.6716665,19.8216665 22.715,19.865 C22.7583336,19.9083336 22.78,19.9666663 22.78,20.04 L22.78,24.76 C22.78,24.826667 22.7583336,24.8833331 22.715,24.93 C22.6716665,24.9766669 22.6133337,25 22.54,25 L21.7,25 C21.633333,25 21.5766669,24.9766669 21.53,24.93 C21.4833331,24.8833331 21.46,24.826667 21.46,24.76 L21.46,20.87 L19.34,20.87 L19.34,24.76 C19.34,24.826667 19.3166669,24.8833331 19.27,24.93 C19.2233331,24.9766669 19.166667,25 19.1,25 L18.25,25 Z M26.38,25.1 C25.6333296,25.1 25.0416689,24.8866688 24.605,24.46 C24.1683312,24.0333312 23.9366668,23.4266706 23.91,22.64 L23.9,22.39 C23.9,21.5566625 24.1183312,20.9000024 24.555,20.42 C24.9916689,19.9399976 25.5966628,19.7 26.37,19.7 C27.1633373,19.7 27.7749979,19.9399976 28.205,20.42 C28.6350022,20.9000024 28.85,21.539996 28.85,22.34 L28.85,22.55 C28.85,22.616667 28.8266669,22.6733331 28.78,22.72 C28.7333331,22.7666669 28.6733337,22.79 28.6,22.79 L25.28,22.79 L25.28,22.87 C25.2933334,23.2433352 25.3949991,23.5516655 25.585,23.795 C25.775001,24.0383346 26.036665,24.16 26.37,24.16 C26.7500019,24.16 27.0599988,24.0066682 27.3,23.7 C27.3600003,23.6266663 27.4066665,23.5816668 27.44,23.565 C27.4733335,23.5483332 27.5299996,23.54 27.61,23.54 L28.49,23.54 C28.5500003,23.54 28.6016665,23.5566665 28.645,23.59 C28.6883336,23.6233335 28.71,23.6699997 28.71,23.73 C28.71,23.8900008 28.615001,24.0783323 28.425,24.295 C28.2349991,24.5116678 27.9633351,24.6999992 27.61,24.86 C27.2566649,25.0200008 26.846669,25.1 26.38,25.1 Z M27.47,21.94 L27.47,21.92 C27.47,21.5266647 27.3716677,21.2116678 27.175,20.975 C26.9783324,20.7383322 26.7100017,20.62 26.37,20.62 C26.0299983,20.62 25.7633343,20.7383322 25.57,20.975 C25.3766657,21.2116678 25.28,21.5266647 25.28,21.92 L25.28,21.94 L27.47,21.94 Z M30.16,26.9 C30.093333,26.9 30.0366669,26.8783336 29.99,26.835 C29.9433331,26.7916665 29.92,26.7333337 29.92,26.66 L29.92,20.04 C29.92,19.9666663 29.9433331,19.9083336 29.99,19.865 C30.0366669,19.8216665 30.093333,19.8 30.16,19.8 L30.96,19.8 C31.0333337,19.8 31.0933331,19.8233331 31.14,19.87 C31.1866669,19.9166669 31.21,19.973333 31.21,20.04 L31.21,20.44 C31.5633351,19.9466642 32.0933298,19.7 32.8,19.7 C33.4733367,19.7 33.9899982,19.9116646 34.35,20.335 C34.7100018,20.7583355 34.9033332,21.3266631 34.93,22.04 C34.9366667,22.1200004 34.94,22.2399992 34.94,22.4 C34.94,22.5600008 34.9366667,22.6799996 34.93,22.76 C34.9099999,23.4600035 34.7183352,24.0249979 34.355,24.455 C33.9916649,24.8850022 33.4733367,25.1 32.8,25.1 C32.13333,25.1 31.6233351,24.8633357 31.27,24.39 L31.27,26.66 C31.27,26.7333337 31.2483336,26.7916665 31.205,26.835 C31.1616665,26.8783336 31.1033337,26.9 31.03,26.9 L30.16,26.9 Z M32.42,24.02 C33.1333369,24.02 33.5133331,23.5800044 33.56,22.7 C33.5666667,22.633333 33.57,22.533334 33.57,22.4 C33.57,22.266666 33.5666667,22.166667 33.56,22.1 C33.5133331,21.2199956 33.1333369,20.78 32.42,20.78 C32.0399981,20.78 31.7566676,20.9033321 31.57,21.15 C31.3833324,21.3966679 31.2833334,21.6966649 31.27,22.05 C31.2633333,22.1300004 31.26,22.2566658 31.26,22.43 C31.26,22.6033342 31.2633333,22.7333329 31.27,22.82 C31.2833334,23.153335 31.3866657,23.4366655 31.58,23.67 C31.7733343,23.9033345 32.0533315,24.02 32.42,24.02 Z M38.3,25.1 C37.5533296,25.1 36.9616689,24.8866688 36.525,24.46 C36.0883312,24.0333312 35.8566668,23.4266706 35.83,22.64 L35.82,22.39 C35.82,21.5566625 36.0383312,20.9000024 36.475,20.42 C36.9116689,19.9399976 37.5166628,19.7 38.29,19.7 C39.0833373,19.7 39.6949979,19.9399976 40.125,20.42 C40.5550022,20.9000024 40.77,21.539996 40.77,22.34 L40.77,22.55 C40.77,22.616667 40.7466669,22.6733331 40.7,22.72 C40.6533331,22.7666669 40.5933337,22.79 40.52,22.79 L37.2,22.79 L37.2,22.87 C37.2133334,23.2433352 37.3149991,23.5516655 37.505,23.795 C37.695001,24.0383346 37.956665,24.16 38.29,24.16 C38.6700019,24.16 38.9799988,24.0066682 39.22,23.7 C39.2800003,23.6266663 39.3266665,23.5816668 39.36,23.565 C39.3933335,23.5483332 39.4499996,23.54 39.53,23.54 L40.41,23.54 C40.4700003,23.54 40.5216665,23.5566665 40.565,23.59 C40.6083336,23.6233335 40.63,23.6699997 40.63,23.73 C40.63,23.8900008 40.535001,24.0783323 40.345,24.295 C40.1549991,24.5116678 39.8833351,24.6999992 39.53,24.86 C39.1766649,25.0200008 38.766669,25.1 38.3,25.1 Z M39.39,21.94 L39.39,21.92 C39.39,21.5266647 39.2916677,21.2116678 39.095,20.975 C38.8983324,20.7383322 38.6300017,20.62 38.29,20.62 C37.9499983,20.62 37.6833343,20.7383322 37.49,20.975 C37.2966657,21.2116678 37.2,21.5266647 37.2,21.92 L37.2,21.94 L39.39,21.94 Z M42.07,25 C42.003333,25 41.9466669,24.9766669 41.9,24.93 C41.8533331,24.8833331 41.83,24.826667 41.83,24.76 L41.83,20.04 C41.83,19.9666663 41.8533331,19.9083336 41.9,19.865 C41.9466669,19.8216665 42.003333,19.8 42.07,19.8 L44.29,19.8 C44.9833368,19.8 45.5049983,19.9266654 45.855,20.18 C46.2050018,20.4333346 46.38,20.7866644 46.38,21.24 C46.38,21.506668 46.3300005,21.7183325 46.23,21.875 C46.1299995,22.0316675 45.980001,22.1699994 45.78,22.29 C46.0133345,22.3966672 46.1949994,22.5566656 46.325,22.77 C46.4550007,22.9833344 46.52,23.223332 46.52,23.49 C46.52,23.9766691 46.3400018,24.3499987 45.98,24.61 C45.6199982,24.8700013 45.0933368,25 44.4,25 L42.07,25 Z M44.27,21.92 C44.536668,21.92 44.7466659,21.8633339 44.9,21.75 C45.0533341,21.6366661 45.13,21.4766677 45.13,21.27 C45.13,21.069999 45.0566674,20.9266671 44.91,20.84 C44.7633326,20.7533329 44.5500014,20.71 44.27,20.71 L43.12,20.71 L43.12,21.92 L44.27,21.92 Z M44.32,24.09 C44.5933347,24.09 44.8066659,24.0400005 44.96,23.94 C45.1133341,23.8399995 45.19,23.6866677 45.19,23.48 C45.19,23.2599989 45.1183341,23.1016672 44.975,23.005 C44.831666,22.9083329 44.6133348,22.86 44.32,22.86 L43.12,22.86 L43.12,24.09 L44.32,24.09 Z M49.99,25.1 C49.2033294,25.1 48.5966688,24.900002 48.17,24.5 C47.7433312,24.099998 47.5133335,23.5466702 47.48,22.84 L47.47,22.4 L47.48,21.96 C47.5133335,21.2599965 47.7466645,20.7083353 48.18,20.305 C48.6133355,19.9016647 49.2166628,19.7 49.99,19.7 C50.7566705,19.7 51.3566645,19.9016647 51.79,20.305 C52.2233355,20.7083353 52.4566665,21.2599965 52.49,21.96 C52.4966667,22.0400004 52.5,22.1866656 52.5,22.4 C52.5,22.6133344 52.4966667,22.7599996 52.49,22.84 C52.4566665,23.5466702 52.2266688,24.099998 51.8,24.5 C51.3733312,24.900002 50.7700039,25.1 49.99,25.1 Z M49.99,24.09 C50.3433351,24.09 50.6149991,23.9800011 50.805,23.76 C50.995001,23.5399989 51.0966666,23.2166688 51.11,22.79 C51.1166667,22.723333 51.12,22.5933343 51.12,22.4 C51.12,22.2066657 51.1166667,22.076667 51.11,22.01 C51.0966666,21.5833312 50.9933343,21.2583344 50.8,21.035 C50.6066657,20.8116656 50.3366684,20.7 49.99,20.7 C49.6366649,20.7 49.3633343,20.8116656 49.17,21.035 C48.9766657,21.2583344 48.8733334,21.5833312 48.86,22.01 L48.85,22.4 L48.86,22.79 C48.8733334,23.2166688 48.9766657,23.5399989 49.17,23.76 C49.3633343,23.9800011 49.6366649,24.09 49.99,24.09 Z M55.61,25.1 C55.076664,25.1 54.6450017,25.0200008 54.315,24.86 C53.9849984,24.6999992 53.7450008,24.5083344 53.595,24.285 C53.4449993,24.0616656 53.3600001,23.8366678 53.34,23.61 L53.34,23.6 C53.34,23.5533331 53.3583332,23.5133335 53.395,23.48 C53.4316669,23.4466665 53.4766664,23.43 53.53,23.43 L54.36,23.43 C54.4800006,23.43 54.5666664,23.4866661 54.62,23.6 C54.6800003,23.7866676 54.7966658,23.9216662 54.97,24.005 C55.1433342,24.0883338 55.3733319,24.13 55.66,24.13 C55.9466681,24.13 56.1783325,24.0733339 56.355,23.96 C56.5316676,23.8466661 56.62,23.6766678 56.62,23.45 C56.62,23.0033311 56.3500027,22.78 55.81,22.78 L55.26,22.78 C55.193333,22.78 55.1400002,22.7583335 55.1,22.715 C55.0599998,22.6716664 55.04,22.6200003 55.04,22.56 L55.04,22.13 C55.04,22.0699997 55.0599998,22.0183336 55.1,21.975 C55.1400002,21.9316665 55.193333,21.91 55.26,21.91 L55.77,21.91 C56.0100012,21.91 56.1899994,21.8650005 56.31,21.775 C56.4300006,21.6849996 56.49,21.5433343 56.49,21.35 C56.49,21.1566657 56.4183341,20.9966673 56.275,20.87 C56.131666,20.7433327 55.9100015,20.68 55.61,20.68 C55.3099985,20.68 55.0916674,20.7266662 54.955,20.82 C54.8183327,20.9133338 54.716667,21.0633323 54.65,21.27 C54.5966664,21.3833339 54.5100006,21.44 54.39,21.44 L53.59,21.44 C53.5366664,21.44 53.4900002,21.4216669 53.45,21.385 C53.4099998,21.3483331 53.3933333,21.3066669 53.4,21.26 C53.4133334,20.993332 53.4983326,20.7416678 53.655,20.505 C53.8116675,20.2683321 54.0533317,20.0750008 54.38,19.925 C54.7066683,19.7749993 55.1166642,19.7 55.61,19.7 C56.3500037,19.7 56.8949983,19.8433319 57.245,20.13 C57.5950018,20.4166681 57.77,20.7633313 57.77,21.17 C57.77,21.4300013 57.7216672,21.6466658 57.625,21.82 C57.5283329,21.9933342 57.3666678,22.1366661 57.14,22.25 C57.673336,22.450001 57.94,22.8866633 57.94,23.56 C57.94,24.0466691 57.7300021,24.4249986 57.31,24.695 C56.8899979,24.9650014 56.3233369,25.1 55.61,25.1 Z M62.26,25 C62.193333,25 62.1366669,24.9766669 62.09,24.93 C62.0433331,24.8833331 62.02,24.826667 62.02,24.76 L62.02,23.06 C61.6933317,23.3466681 61.2133365,23.49 60.58,23.49 C59.9533302,23.49 59.4800016,23.3416682 59.16,23.045 C58.8399984,22.7483318 58.68,22.2833365 58.68,21.65 L58.68,20.04 C58.68,19.9666663 58.7033331,19.9083336 58.75,19.865 C58.7966669,19.8216665 58.853333,19.8 58.92,19.8 L59.79,19.8 C59.8633337,19.8 59.9216665,19.8216665 59.965,19.865 C60.0083336,19.9083336 60.03,19.9666663 60.03,20.04 L60.03,21.58 C60.03,21.846668 60.0999993,22.0366661 60.24,22.15 C60.3800007,22.2633339 60.6099984,22.32 60.93,22.32 C61.6566703,22.32 62.02,22.1266686 62.02,21.74 L62.02,20.04 C62.02,19.9666663 62.0433331,19.9083336 62.09,19.865 C62.1366669,19.8216665 62.193333,19.8 62.26,19.8 L63.17,19.8 C63.2433337,19.8 63.3016665,19.8216665 63.345,19.865 C63.3883336,19.9083336 63.41,19.9666663 63.41,20.04 L63.41,24.76 C63.41,24.826667 63.3883336,24.8833331 63.345,24.93 C63.3016665,24.9766669 63.2433337,25 63.17,25 L62.26,25 Z M69.51,19.8 C69.5700003,19.8 69.6233331,19.8216665 69.67,19.865 C69.7166669,19.9083336 69.74,19.9599997 69.74,20.02 L69.74,24.76 C69.74,24.826667 69.7183335,24.8833331 69.675,24.93 C69.6316664,24.9766669 69.5733337,25 69.5,25 L68.65,25 C68.583333,25 68.5266669,24.9766669 68.48,24.93 C68.4333331,24.8833331 68.41,24.826667 68.41,24.76 L68.41,21.57 L66.04,24.84 C65.9666663,24.9466672 65.8733339,25 65.76,25 L64.99,25 C64.923333,25 64.8683336,24.9783336 64.825,24.935 C64.7816665,24.8916665 64.76,24.836667 64.76,24.77 L64.76,20.04 C64.76,19.9666663 64.7833331,19.9083336 64.83,19.865 C64.8766669,19.8216665 64.933333,19.8 65,19.8 L65.85,19.8 C65.916667,19.8 65.9733331,19.8233331 66.02,19.87 C66.0666669,19.9166669 66.09,19.973333 66.09,20.04 L66.09,23.23 L68.46,19.96 C68.5400004,19.8533328 68.6333328,19.8 68.74,19.8 L69.51,19.8 Z M75.81,24.69 C75.8433335,24.7366669 75.86,24.7799998 75.86,24.82 C75.86,24.8733336 75.8400002,24.9166665 75.8,24.95 C75.7599998,24.9833335 75.7100003,25 75.65,25 L74.62,25 C74.553333,25 74.5000002,24.9883334 74.46,24.965 C74.4199998,24.9416666 74.3800002,24.9033336 74.34,24.85 L73.04,22.9 L72.31,22.9 L72.31,24.76 C72.31,24.826667 72.2883335,24.8833331 72.245,24.93 C72.2016664,24.9766669 72.1433337,25 72.07,25 L71.24,25 C71.173333,25 71.1166669,24.9766669 71.07,24.93 C71.0233331,24.8833331 71,24.826667 71,24.76 L71,20.04 C71,19.9666663 71.0233331,19.9083336 71.07,19.865 C71.1166669,19.8216665 71.173333,19.8 71.24,19.8 L72.07,19.8 C72.1433337,19.8 72.2016664,19.8216665 72.245,19.865 C72.2883335,19.9083336 72.31,19.9666663 72.31,20.04 L72.31,21.82 L73.05,21.82 L74.24,19.96 C74.2800002,19.9066664 74.3199998,19.8666668 74.36,19.84 C74.4000002,19.8133332 74.4499997,19.8 74.51,19.8 L75.43,19.8 C75.496667,19.8 75.5499998,19.8166665 75.59,19.85 C75.6300002,19.8833335 75.65,19.9266664 75.65,19.98 C75.65,20.0000001 75.6333335,20.043333 75.6,20.11 L74.18,22.31 L75.81,24.69 Z M78.24,25.1 C77.8999983,25.1 77.5883348,25.0316673 77.305,24.895 C77.0216653,24.7583326 76.7983342,24.5733345 76.635,24.34 C76.4716659,24.1066655 76.39,23.8500014 76.39,23.57 C76.39,23.1166644 76.5733315,22.7500014 76.94,22.47 C77.3066685,22.1899986 77.8099968,22.0000005 78.45,21.9 L79.82,21.7 L79.82,21.49 C79.82,21.2033319 79.7466674,20.9866674 79.6,20.84 C79.4533326,20.6933326 79.2200016,20.62 78.9,20.62 C78.6799989,20.62 78.503334,20.6599996 78.37,20.74 C78.236666,20.8200004 78.1283337,20.9016662 78.045,20.985 L77.88,21.15 C77.8533332,21.2300004 77.8033337,21.27 77.73,21.27 L76.95,21.27 C76.8899997,21.27 76.8383336,21.2500002 76.795,21.21 C76.7516665,21.1699998 76.73,21.116667 76.73,21.05 C76.7366667,20.8833325 76.8183326,20.6950011 76.975,20.485 C77.1316675,20.274999 77.3733317,20.0916675 77.7,19.935 C78.0266683,19.7783326 78.4299976,19.7 78.91,19.7 C79.6966706,19.7 80.2699982,19.8766649 80.63,20.23 C80.9900018,20.5833351 81.17,21.0466638 81.17,21.62 L81.17,24.76 C81.17,24.826667 81.1483336,24.8833331 81.105,24.93 C81.0616665,24.9766669 81.0033337,25 80.93,25 L80.1,25 C80.033333,25 79.9766669,24.9766669 79.93,24.93 C79.8833331,24.8833331 79.86,24.826667 79.86,24.76 L79.86,24.37 C79.7133326,24.5833344 79.506668,24.7583326 79.24,24.895 C78.973332,25.0316673 78.640002,25.1 78.24,25.1 Z M78.58,24.14 C78.9466685,24.14 79.2466655,24.0200012 79.48,23.78 C79.7133345,23.5399988 79.83,23.1933356 79.83,22.74 L79.83,22.54 L78.83,22.7 C78.0633295,22.8200006 77.68,23.0766647 77.68,23.47 C77.68,23.6833344 77.7683325,23.8483328 77.945,23.965 C78.1216676,24.0816672 78.3333321,24.14 78.58,24.14 Z" id="ЛК-перевозчика" fill="#185DD3"></path>
            </g>
            <g id="crcp_icn">
                <polygon id="Path" fill="url(#linearGradient-1)" points="32.4407352 12.1935484 6.09677419 54 27.9193548 48.9832258 41.8064516 27.0116129"></polygon>
                <polygon id="Path" fill="url(#linearGradient-2)" points="32.4407352 12.1935484 6.09677419 54 41.8064516 27.0116129"></polygon>
                <polygon id="Path" fill="url(#linearGradient-3)" points="32.4407352 41.8064516 6.09677419 0 27.9193548 5.01677419 41.8064516 26.9883871"></polygon>
                <polygon id="Path" fill="url(#linearGradient-4)" points="6.09677419 0 27.9193548 5.01893287 41.8064516 27"></polygon>
                <polygon id="Path" fill="url(#linearGradient-5)" points="29.6129032 36.561533 32.998234 41.8064516 42.6774194 27"></polygon>
                <polygon id="Path" fill="url(#linearGradient-6)" points="17.3350121 17.4193548 0 45.2903226 14.3606401 41.9249506 23.516129 27.2784727"></polygon>
                <polygon id="Path" fill="url(#linearGradient-7)" points="17.3350121 17.4193548 0 45.2903226 23.516129 27.2784727"></polygon>
                <polygon id="Path" fill="url(#linearGradient-8)" points="17.3350121 37.4516129 0 9.58064516 14.3606401 12.9460171 23.516129 27.5924951"></polygon>
                <polygon id="Path" fill="url(#linearGradient-9)" points="0 9.58064516 14.3606401 12.8353141 23.516129 27"></polygon>
                <polygon id="Path" fill="url(#linearGradient-10)" points="14.8064516 33.1721464 17.0446927 36.5806452 23.516129 27"></polygon>
            </g>
        </g>
    </g>
</svg>
