
<svg width="180px" height="54px" viewBox="0 0 180 54" version="1.1" xmlns="http://www.w3.org/2000/svg" xmlns:xlink="http://www.w3.org/1999/xlink">
    <defs>
        <linearGradient x1="-7.11976744%" y1="91.9844444%" x2="91.1143411%" y2="28.8325556%" id="linearGradient-1">
            <stop stop-color="#5697DC" offset="0%"></stop>
            <stop stop-color="#4B83BC" offset="37.4%"></stop>
            <stop stop-color="#41709C" offset="69.83%"></stop>
        </linearGradient>
        <linearGradient x1="6.57984496%" y1="100.047222%" x2="68.6357881%" y2="36.4455556%" id="linearGradient-2">
            <stop stop-color="#5EA4F3" offset="0%"></stop>
            <stop stop-color="#5899E0" offset="31.06%"></stop>
            <stop stop-color="#497EAF" offset="93.72%"></stop>
            <stop stop-color="#477BAA" offset="100%"></stop>
        </linearGradient>
        <linearGradient x1="10.194186%" y1="-5.516%" x2="84.5992248%" y2="74.3647778%" id="linearGradient-3">
            <stop stop-color="#386391" offset="0%"></stop>
            <stop stop-color="#335786" offset="73.51%"></stop>
            <stop stop-color="#315181" offset="100%"></stop>
        </linearGradient>
        <linearGradient x1="9.87739018%" y1="-11.4299484%" x2="107.139018%" y2="86.0719449%" id="linearGradient-4">
            <stop stop-color="#4B84AF" offset="22.35%"></stop>
            <stop stop-color="#355886" offset="100%"></stop>
        </linearGradient>
        <linearGradient x1="102.916423%" y1="3.08746082%" x2="14.9956204%" y2="80.3755486%" id="linearGradient-5">
            <stop stop-color="#42729E" offset="0%"></stop>
            <stop stop-color="#3B608F" offset="32.88%"></stop>
            <stop stop-color="#2D3F72" offset="100%"></stop>
        </linearGradient>
        <linearGradient x1="-9.47035573%" y1="87.5120748%" x2="55.2747036%" y2="50.8727891%" id="linearGradient-6">
            <stop stop-color="#CFE135" offset="0%"></stop>
            <stop stop-color="#BAD433" offset="22.23%"></stop>
            <stop stop-color="#90B930" offset="73.73%"></stop>
            <stop stop-color="#7FAE2F" offset="100%"></stop>
        </linearGradient>
        <linearGradient x1="-4.24525692%" y1="96.0884354%" x2="83.7235178%" y2="20.387415%" id="linearGradient-7">
            <stop stop-color="#D9E636" offset="40.22%"></stop>
            <stop stop-color="#C7DB36" offset="48.83%"></stop>
            <stop stop-color="#9ABF35" offset="65.93%"></stop>
            <stop stop-color="#68A135" offset="82.48%"></stop>
        </linearGradient>
        <linearGradient x1="7.70197628%" y1="-2.33571429%" x2="83.3551383%" y2="71.5484694%" id="linearGradient-8">
            <stop stop-color="#95BD49" offset="0%"></stop>
            <stop stop-color="#4C8645" offset="100%"></stop>
        </linearGradient>
        <linearGradient x1="9.8958498%" y1="-11.3547368%" x2="107.137154%" y2="86.0821053%" id="linearGradient-9">
            <stop stop-color="#C9D542" offset="0%"></stop>
            <stop stop-color="#92B447" offset="42.94%"></stop>
            <stop stop-color="#679A4B" offset="80.74%"></stop>
            <stop stop-color="#57904D" offset="100%"></stop>
        </linearGradient>
        <linearGradient x1="5.27932961%" y1="50.0745192%" x2="104.991061%" y2="50.0745192%" id="linearGradient-10">
            <stop stop-color="#365F19" offset="0%"></stop>
            <stop stop-color="#427428" offset="68.1%"></stop>
            <stop stop-color="#487F30" offset="100%"></stop>
        </linearGradient>
    </defs>
    <g id="Page-1" stroke="none" stroke-width="1" fill="none" fill-rule="evenodd">
        <g id="logo-sno">
            <g id="Group-2" transform="translate(55.000000, 11.000000)">
                <g id="Group" transform="translate(51.000000, 0.000000)">
                    <path d="M64.9989203,16.3203 L2.22592031,16.3203 C0.98992031,16.3203 -0.0350796898,15.2958 0.000920310165,14.0241 L0.000920310165,2.1549 C0.0359203102,0.9538 1.02492031,0 2.22592031,0 L71.3219203,0 C72.9829203,0 74.0779203,1.7663 73.2649203,3.2499 L66.9419203,15.1545 C66.5529203,15.861 65.8119203,16.3203 64.9989203,16.3203 Z" id="Path" fill="#185DD3"></path>
                    <path d="M6.12125,7.2146 C6.12125,7.5679 6.08625,7.8858 6.08625,8.2037 C6.08625,8.5217 6.08625,8.8396 6.12125,9.1928 C6.15625,9.8287 6.33325,10.3586 6.72225,10.7471 C7.07525,11.1357 7.60525,11.3477 8.31125,11.3477 C8.70025,11.3477 8.98225,11.3123 9.26525,11.2064 C9.51225,11.1004 9.72425,10.9944 9.90125,10.8531 C10.07725,10.7118 10.18325,10.5352 10.28925,10.3586 C10.39525,10.1819 10.43125,9.97 10.50125,9.7934 C10.50125,9.7227 10.57225,9.6521 10.60725,9.6167 C10.67825,9.5814 10.74925,9.5461 10.78425,9.5461 L11.31425,9.5461 C11.38425,9.5461 11.45525,9.5814 11.49025,9.6167 C11.52625,9.6521 11.56125,9.7227 11.56125,9.7934 C11.56125,10.0406 11.49025,10.3232 11.34925,10.6412 C11.20825,10.9591 11.03125,11.2417 10.78425,11.489 C10.53725,11.7716 10.18325,11.9835 9.79525,12.1602 C9.37125,12.3368 8.87625,12.4427 8.31125,12.4427 C7.81725,12.4427 7.35725,12.3721 6.96925,12.1955 C6.58025,12.0189 6.22725,11.8069 5.94425,11.5243 C5.66225,11.2417 5.45025,10.9238 5.27325,10.5352 C5.13225,10.1466 5.02625,9.7227 5.02625,9.2635 C4.99125,8.557 4.99125,7.8858 5.02625,7.1793 C5.02625,6.7201 5.13225,6.2962 5.27325,5.9076 C5.41425,5.519 5.66225,5.2011 5.94425,4.9185 C6.22725,4.6359 6.58025,4.4239 6.96925,4.2473 C7.35725,4.0707 7.81725,4 8.31125,4 C8.87625,4 9.37125,4.106 9.79525,4.2826 C10.21925,4.4593 10.53725,4.6712 10.78425,4.9538 C11.03125,5.2364 11.24325,5.519 11.34925,5.8016 C11.49025,6.1196 11.52625,6.3668 11.56125,6.6494 C11.56125,6.7201 11.52625,6.7907 11.49025,6.8261 C11.45525,6.8614 11.38425,6.8967 11.31425,6.8967 L10.78425,6.8967 C10.71325,6.8967 10.64325,6.8614 10.60725,6.8261 C10.53725,6.7907 10.50125,6.7201 10.50125,6.6494 C10.46625,6.4728 10.39525,6.2608 10.28925,6.0842 C10.18325,5.9076 10.07725,5.731 9.90125,5.5897 C9.72425,5.4484 9.51225,5.3071 9.26525,5.2364 C9.01825,5.1304 8.70025,5.0951 8.31125,5.0951 C7.60525,5.0951 7.07525,5.3071 6.72225,5.6957 C6.36825,6.0489 6.15625,6.5788 6.12125,7.2146 Z" id="Path" fill="#FFFFFF"></path>
                    <path d="M13.318,12.1601 C13.248,12.1601 13.142,12.1248 13.106,12.0541 C13.036,11.9835 13,11.9128 13,11.8422 L13,4.3179 C13,4.2473 13.036,4.1413 13.106,4.106 C13.177,4.0353 13.248,4 13.318,4 L13.813,4 C13.884,4 13.99,4.0353 14.025,4.106 C14.096,4.1766 14.131,4.2473 14.131,4.3179 L14.131,10.0406 L17.911,4.3532 C17.981,4.2826 18.017,4.1766 18.087,4.106 C18.158,4.0353 18.264,4 18.37,4 L18.794,4 C18.864,4 18.97,4.0353 19.006,4.106 C19.076,4.1766 19.112,4.2473 19.112,4.3179 L19.112,11.8422 C19.112,11.9128 19.076,12.0188 19.006,12.0541 C18.935,12.1248 18.864,12.1601 18.794,12.1601 L18.299,12.1601 C18.229,12.1601 18.123,12.1248 18.087,12.0541 C18.017,11.9835 17.981,11.9128 17.981,11.8422 L17.981,6.1195 L14.202,11.8068 C14.131,11.8775 14.096,11.9835 14.025,12.0541 C13.954,12.1248 13.848,12.1601 13.742,12.1601 L13.318,12.1601 Z" id="Path" fill="#FFFFFF"></path>
                    <path d="M22.12125,7.2146 C22.12125,7.5679 22.08625,7.8858 22.08625,8.2037 C22.08625,8.5217 22.08625,8.8396 22.12125,9.1928 C22.15725,9.8287 22.33325,10.3586 22.72225,10.7471 C23.07525,11.1357 23.60525,11.3477 24.31125,11.3477 C24.70025,11.3477 24.98325,11.3123 25.26525,11.2064 C25.51325,11.1004 25.72425,10.9944 25.90125,10.8531 C26.07825,10.7118 26.18425,10.5352 26.29025,10.3586 C26.39625,10.1819 26.43125,9.97 26.50225,9.7934 C26.50225,9.7227 26.57225,9.6521 26.60825,9.6167 C26.67825,9.5814 26.74925,9.5461 26.78425,9.5461 L27.31425,9.5461 C27.38525,9.5461 27.45525,9.5814 27.49125,9.6167 C27.52625,9.6521 27.56125,9.7227 27.56125,9.7934 C27.56125,10.0406 27.49125,10.3232 27.34925,10.6412 C27.20825,10.9591 27.03225,11.2417 26.78425,11.489 C26.53725,11.7716 26.18425,11.9835 25.79525,12.1602 C25.37125,12.3368 24.87725,12.4427 24.31125,12.4427 C23.81725,12.4427 23.35825,12.3721 22.96925,12.1955 C22.58125,12.0189 22.22725,11.8069 21.94525,11.5243 C21.66225,11.2417 21.45025,10.9238 21.27425,10.5352 C21.13225,10.1466 21.02625,9.7227 21.02625,9.2635 C20.99125,8.557 20.99125,7.8858 21.02625,7.1793 C21.02625,6.7201 21.13225,6.2962 21.27425,5.9076 C21.41525,5.519 21.66225,5.2011 21.94525,4.9185 C22.22725,4.6359 22.58125,4.4239 22.96925,4.2473 C23.35825,4.0707 23.81725,4 24.31125,4 C24.87725,4 25.37125,4.106 25.79525,4.2826 C26.21925,4.4593 26.53725,4.6712 26.78425,4.9538 C27.03225,5.2364 27.24325,5.519 27.34925,5.8016 C27.49125,6.1196 27.52625,6.3668 27.56125,6.6494 C27.56125,6.7201 27.52625,6.7907 27.49125,6.8261 C27.45525,6.8614 27.38525,6.8967 27.31425,6.8967 L26.78425,6.8967 C26.71425,6.8967 26.64325,6.8614 26.60825,6.8261 C26.53725,6.7907 26.50225,6.7201 26.50225,6.6494 C26.46625,6.4728 26.39625,6.2608 26.29025,6.0842 C26.18425,5.9076 26.07825,5.731 25.90125,5.5897 C25.72425,5.4484 25.51325,5.3071 25.26525,5.2364 C25.01825,5.1304 24.70025,5.0951 24.31125,5.0951 C23.60525,5.0951 23.07525,5.3071 22.72225,5.6957 C22.33325,6.0489 22.15725,6.5788 22.12125,7.2146 Z" id="Path" fill="#FFFFFF"></path>
                    <path d="M33.829,4 C33.9,4 34.006,4.0353 34.041,4.106 C34.112,4.1766 34.147,4.2473 34.147,4.3179 L34.147,4.7418 C34.147,4.8125 34.112,4.9184 34.041,4.9538 C33.97,5.0244 33.9,5.0598 33.829,5.0598 L31.639,5.0598 L31.639,11.8422 C31.639,11.9128 31.604,12.0188 31.533,12.0541 C31.462,12.1248 31.392,12.1601 31.321,12.1601 L30.826,12.1601 C30.756,12.1601 30.65,12.1248 30.615,12.0541 C30.544,11.9835 30.509,11.9128 30.509,11.8422 L30.509,5.0598 L28.318,5.0598 C28.248,5.0598 28.142,5.0244 28.106,4.9538 C28.036,4.8831 28,4.8125 28,4.7418 L28,4.3179 C28,4.2473 28.036,4.1413 28.106,4.106 C28.177,4.0353 28.248,4 28.318,4 L33.829,4 Z" id="Path" fill="#FFFFFF"></path>
                    <path d="M41.017,11.1003 C41.087,11.1003 41.158,11.1357 41.229,11.2063 C41.299,11.277 41.335,11.3476 41.335,11.4183 L41.335,11.8422 C41.335,11.9128 41.299,12.0188 41.229,12.0541 C41.158,12.1248 41.087,12.1601 41.017,12.1601 L36.318,12.1601 C36.248,12.1601 36.142,12.1248 36.106,12.0541 C36.036,11.9835 36,11.9128 36,11.8422 L36,4.3179 C36,4.2473 36.036,4.1413 36.106,4.106 C36.177,4.0353 36.248,4 36.318,4 L40.946,4 C41.017,4 41.087,4.0353 41.158,4.106 C41.229,4.1766 41.264,4.2473 41.264,4.3179 L41.264,4.7418 C41.264,4.8125 41.229,4.9184 41.158,4.9538 C41.087,5.0244 41.017,5.0598 40.946,5.0598 L37.131,5.0598 L37.131,7.5325 L40.663,7.5325 C40.734,7.5325 40.84,7.5678 40.875,7.6385 C40.946,7.7091 40.981,7.7798 40.981,7.8504 L40.981,8.2743 C40.981,8.345 40.946,8.451 40.875,8.4863 C40.805,8.5569 40.734,8.5923 40.663,8.5923 L37.096,8.5923 L37.096,11.1357 L41.017,11.1357 L41.017,11.1003 Z" id="Path" fill="#FFFFFF"></path>
                    <path d="M45.674,8.9102 L48.04,4.3533 C48.076,4.2473 48.146,4.1767 48.217,4.106 C48.288,4.0354 48.394,4 48.535,4 L48.994,4 C49.065,4 49.171,4.0354 49.206,4.106 C49.241,4.1767 49.312,4.2473 49.312,4.318 L49.312,11.8422 C49.312,11.9129 49.277,12.0189 49.206,12.0542 C49.135,12.1248 49.065,12.1602 48.994,12.1602 L48.5,12.1602 C48.429,12.1602 48.323,12.1248 48.288,12.0542 C48.217,11.9835 48.182,11.9129 48.182,11.8422 L48.182,6.3315 L46.38,9.8287 C46.309,9.9347 46.239,10.0407 46.168,10.1113 C46.098,10.182 45.992,10.2173 45.886,10.2173 L45.426,10.2173 C45.32,10.2173 45.214,10.182 45.144,10.1113 C45.073,10.0407 45.002,9.97 44.932,9.8287 L43.13,6.3315 L43.13,11.8422 C43.13,11.9129 43.095,12.0189 43.024,12.0542 C42.954,12.1248 42.883,12.1602 42.812,12.1602 L42.318,12.1602 C42.247,12.1602 42.141,12.1248 42.106,12.0542 C42.035,11.9835 42,11.9129 42,11.8422 L42,4.318 C42,4.2473 42.035,4.1414 42.106,4.106 C42.176,4.0354 42.247,4 42.318,4 L42.777,4 C42.918,4 43.024,4.0354 43.095,4.106 C43.166,4.1767 43.236,4.2826 43.272,4.3533 L45.674,8.9102 Z" id="Path" fill="#FFFFFF"></path>
                    <path d="M56.758,10.3232 L52.731,10.3232 L52.131,11.8775 C52.096,11.9482 52.06,12.0188 51.99,12.0541 C51.919,12.1248 51.813,12.1601 51.672,12.1601 L51.248,12.1601 C51.177,12.1601 51.106,12.1248 51.071,12.0895 C51.036,12.0541 51,11.9835 51,11.9128 C51,11.8775 51,11.8069 51.036,11.7362 L53.897,4.3886 C53.932,4.3179 54.003,4.2119 54.074,4.1413 C54.144,4.0706 54.25,4 54.427,4 L55.134,4 C55.275,4 55.416,4.0353 55.487,4.1413 C55.557,4.2119 55.628,4.3179 55.663,4.3886 L58.489,11.7362 C58.525,11.8069 58.525,11.8775 58.525,11.9128 C58.525,11.9835 58.489,12.0541 58.454,12.0895 C58.419,12.1248 58.348,12.1601 58.277,12.1601 L57.854,12.1601 C57.712,12.1601 57.606,12.1248 57.536,12.0541 C57.465,11.9835 57.43,11.9128 57.394,11.8775 L56.758,10.3232 Z M53.12,9.2634 L56.335,9.2634 L54.745,5.0951 L53.12,9.2634 Z" id="Shape" fill="#FFFFFF" fill-rule="nonzero"></path>
                </g>
                <path d="M5.916,14.17 C4.35199218,14.17 3.14217095,13.770504 2.2865,12.9715 C1.43082906,12.172496 0.97466695,11.0363407 0.918,9.563 C0.90666661,9.2569985 0.901,8.7583368 0.901,8.067 C0.901,7.36432982 0.90666661,6.85433492 0.918,6.537 C0.97466695,5.08632608 1.43366236,3.95583738 2.295,3.1455 C3.15633764,2.33516261 4.36332557,1.93 5.916,1.93 C6.92467171,1.93 7.80299626,2.1028316 8.551,2.4485 C9.29900374,2.79416839 9.87983126,3.26733033 10.2935,3.868 C10.7071687,4.46866967 10.9253332,5.14299626 10.948,5.891 L10.948,5.925 C10.948,6.01566712 10.911167,6.09216635 10.8375,6.1545 C10.763833,6.21683364 10.6816671,6.248 10.591,6.248 L8.942,6.248 C8.80599932,6.248 8.70400034,6.21683364 8.636,6.1545 C8.56799966,6.09216635 8.51133356,5.98166746 8.466,5.823 C8.29599915,5.12032982 8.00133543,4.62450144 7.582,4.3355 C7.16266457,4.04649855 6.60733679,3.902 5.916,3.902 C4.29532523,3.902 3.45100034,4.8086576 3.383,6.622 C3.37166661,6.92800153 3.366,7.39833016 3.366,8.033 C3.366,8.6676698 3.37166661,9.1493317 3.383,9.478 C3.45100034,11.2913424 4.29532523,12.198 5.916,12.198 C6.5960034,12.198 7.14849788,12.0535014 7.5735,11.7645 C7.99850212,11.4754986 8.29599915,10.9796702 8.466,10.277 C8.51133356,10.1183325 8.56799966,10.0078336 8.636,9.9455 C8.70400034,9.8831664 8.80599932,9.852 8.942,9.852 L10.591,9.852 C10.6930005,9.852 10.780833,9.8859997 10.8545,9.954 C10.928167,10.0220003 10.9593334,10.1069995 10.948,10.209 C10.9253332,10.9570037 10.7071687,11.6313303 10.2935,12.232 C9.87983126,12.8326697 9.29900374,13.3058316 8.551,13.6515 C7.80299626,13.9971684 6.92467171,14.17 5.916,14.17 Z M17.561,14.17 C16.0083256,14.17 14.8013376,13.7790039 13.94,12.997 C13.0786624,12.2149961 12.6253336,11.053341 12.58,9.512 C12.5686666,9.1833317 12.563,8.7016698 12.563,8.067 C12.563,7.42099677 12.5686666,6.93366831 12.58,6.605 C12.6253336,5.09765913 13.0899956,3.94167069 13.974,3.137 C14.8580044,2.33232931 16.0536591,1.93 17.561,1.93 C19.0570075,1.93 20.2498289,2.33232931 21.1395,3.137 C22.0291711,3.94167069 22.4966664,5.09765913 22.542,6.605 C22.5646668,7.26233662 22.576,7.74966508 22.576,8.067 C22.576,8.3730015 22.5646668,8.8546634 22.542,9.512 C22.4966664,11.053341 22.0405043,12.2149961 21.1735,12.997 C20.3064957,13.7790039 19.102341,14.17 17.561,14.17 Z M17.561,12.198 C18.3203371,12.198 18.9209978,11.9713356 19.363,11.518 C19.8050022,11.0646644 20.0429998,10.3676714 20.077,9.427 C20.0996668,8.7469966 20.111,8.2880012 20.111,8.05 C20.111,7.78933203 20.0996668,7.33033662 20.077,6.673 C20.0429998,5.74366202 19.7993356,5.04950229 19.346,4.5905 C18.8926644,4.1314977 18.2976704,3.902 17.561,3.902 C16.8129963,3.902 16.2123356,4.1314977 15.759,4.5905 C15.3056644,5.04950229 15.0676668,5.74366202 15.045,6.673 C15.0336666,7.00166831 15.028,7.46066372 15.028,8.05 C15.028,8.6280029 15.0336666,9.0869983 15.045,9.427 C15.0676668,10.356338 15.3028311,11.0504977 15.7505,11.5095 C16.1981689,11.9685023 16.8016629,12.198 17.561,12.198 Z M25.194,14 C25.0806661,14 24.9843337,13.9603337 24.905,13.881 C24.8256663,13.8016663 24.786,13.7053339 24.786,13.592 L24.786,2.525 C24.786,2.40033271 24.822833,2.29833373 24.8965,2.219 C24.970167,2.13966627 25.0693327,2.1 25.194,2.1 L34.136,2.1 C34.2606673,2.1 34.359833,2.13966627 34.4335,2.219 C34.507167,2.29833373 34.544,2.40033271 34.544,2.525 L34.544,13.592 C34.544,13.7053339 34.507167,13.8016663 34.4335,13.881 C34.359833,13.9603337 34.2606673,14 34.136,14 L32.555,14 C32.4416661,14 32.3453337,13.9603337 32.266,13.881 C32.1866663,13.8016663 32.147,13.7053339 32.147,13.592 L32.147,4.259 L27.183,4.259 L27.183,13.592 C27.183,13.7053339 27.1433337,13.8016663 27.064,13.881 C26.9846663,13.9603337 26.8826673,14 26.758,14 L25.194,14 Z M40.222,14 C40.1086661,14 40.0123337,13.9603337 39.933,13.881 C39.8536663,13.8016663 39.814,13.7053339 39.814,13.592 L39.814,4.225 L36.669,4.225 C36.5556661,4.225 36.4593337,4.18533373 36.38,4.106 C36.3006663,4.02666627 36.261,3.92466729 36.261,3.8 L36.261,2.525 C36.261,2.40033271 36.297833,2.29833373 36.3715,2.219 C36.445167,2.13966627 36.5443327,2.1 36.669,2.1 L45.356,2.1 C45.4806673,2.1 45.5826663,2.13966627 45.662,2.219 C45.7413337,2.29833373 45.781,2.40033271 45.781,2.525 L45.781,3.8 C45.781,3.92466729 45.7413337,4.02666627 45.662,4.106 C45.5826663,4.18533373 45.4806673,4.225 45.356,4.225 L42.228,4.225 L42.228,13.592 C42.228,13.7053339 42.191167,13.8016663 42.1175,13.881 C42.043833,13.9603337 41.9446673,14 41.82,14 L40.222,14 Z" id="СОПТ" fill="#185DD3" fill-rule="nonzero"></path>
            </g>
            <g id="crcp_icn">
                <polygon id="Path" fill="url(#linearGradient-1)" points="32.4407352 12.1935484 6.09677419 54 27.9193548 48.9832258 41.8064516 27.0116129"></polygon>
                <polygon id="Path" fill="url(#linearGradient-2)" points="32.4407352 12.1935484 6.09677419 54 41.8064516 27.0116129"></polygon>
                <polygon id="Path" fill="url(#linearGradient-3)" points="32.4407352 41.8064516 6.09677419 0 27.9193548 5.01677419 41.8064516 26.9883871"></polygon>
                <polygon id="Path" fill="url(#linearGradient-4)" points="6.09677419 0 27.9193548 5.01893287 41.8064516 27"></polygon>
                <polygon id="Path" fill="url(#linearGradient-5)" points="29.6129032 36.561533 32.998234 41.8064516 42.6774194 27"></polygon>
                <polygon id="Path" fill="url(#linearGradient-6)" points="17.3350121 17.4193548 0 45.2903226 14.3606401 41.9249506 23.516129 27.2784727"></polygon>
                <polygon id="Path" fill="url(#linearGradient-7)" points="17.3350121 17.4193548 0 45.2903226 23.516129 27.2784727"></polygon>
                <polygon id="Path" fill="url(#linearGradient-8)" points="17.3350121 37.4516129 0 9.58064516 14.3606401 12.9460171 23.516129 27.5924951"></polygon>
                <polygon id="Path" fill="url(#linearGradient-9)" points="0 9.58064516 14.3606401 12.8353141 23.516129 27"></polygon>
                <polygon id="Path" fill="url(#linearGradient-10)" points="14.8064516 33.1721464 17.0446927 36.5806452 23.516129 27"></polygon>
            </g>
            <text id="ЛК-администратора-ИБ" font-family="Rubik-Medium, Rubik Medium" font-size="10" font-weight="normal" fill="#185DD3">
                <tspan x="56" y="36">ЛК администратора ИБ</tspan>
            </text>
        </g>
    </g>
</svg>
