<?xml version="1.0" encoding="utf-8"?>
<!-- Generator: Adobe Illustrator 19.1.1, SVG Export Plug-In . SVG Version: 6.00 Build 0)  -->
<svg version="1.1" id="Слой_1" xmlns="http://www.w3.org/2000/svg" xmlns:xlink="http://www.w3.org/1999/xlink" x="0px" y="0px"
	 viewBox="65 -2 180 54" style="enable-background:new 65 -2 180 54;" xml:space="preserve">
<g>
	<g id="Group" transform="translate(51.000000, 0.000000)">
		<path id="Path" style="fill:#185DD3;" d="M185,25.3h-62.8c-1.2,0-2.3-1-2.2-2.3V11.2c0-1.2,1-2.2,2.2-2.2h69.1
			c1.7,0,2.8,1.8,1.9,3.2l-6.3,11.9C186.6,24.9,185.8,25.3,185,25.3z"/>
		<path id="Path_1_" style="fill:#FFFFFF;" d="M126.1,16.2c0,0.4,0,0.7,0,1s0,0.6,0,1c0,0.6,0.2,1.2,0.6,1.6s0.9,0.6,1.6,0.6
			c0.4,0,0.7,0,1-0.1c0.2-0.1,0.5-0.2,0.6-0.4c0.2-0.1,0.3-0.3,0.4-0.5c0.1-0.2,0.1-0.4,0.2-0.6c0-0.1,0.1-0.1,0.1-0.2
			c0.1,0,0.1-0.1,0.2-0.1h0.5c0.1,0,0.1,0,0.2,0.1c0,0,0.1,0.1,0.1,0.2c0,0.2-0.1,0.5-0.2,0.8c-0.1,0.3-0.3,0.6-0.6,0.8
			c-0.2,0.3-0.6,0.5-1,0.7s-0.9,0.3-1.5,0.3c-0.5,0-1-0.1-1.3-0.2c-0.4-0.2-0.7-0.4-1-0.7c-0.3-0.3-0.5-0.6-0.7-1
			c-0.1-0.4-0.2-0.8-0.2-1.3c0-0.7,0-1.4,0-2.1c0-0.5,0.1-0.9,0.2-1.3c0.1-0.4,0.4-0.7,0.7-1c0.3-0.3,0.6-0.5,1-0.7s0.8-0.2,1.3-0.2
			c0.6,0,1.1,0.1,1.5,0.3s0.7,0.4,1,0.7c0.2,0.3,0.5,0.6,0.6,0.8c0.1,0.3,0.2,0.6,0.2,0.8c0,0.1,0,0.1-0.1,0.2c0,0-0.1,0.1-0.2,0.1
			h-0.5c-0.1,0-0.1,0-0.2-0.1c-0.1,0-0.1-0.1-0.1-0.2c0-0.2-0.1-0.4-0.2-0.6c-0.1-0.2-0.2-0.4-0.4-0.5s-0.4-0.3-0.6-0.4
			c-0.2-0.1-0.6-0.1-1-0.1c-0.7,0-1.2,0.2-1.6,0.6C126.4,15,126.2,15.6,126.1,16.2z"/>
		<path id="Path_2_" style="fill:#FFFFFF;" d="M133.3,21.2c-0.1,0-0.2,0-0.2-0.1C133,21,133,21,133,20.9v-7.5c0-0.1,0-0.2,0.1-0.2
			c0.1-0.1,0.1-0.1,0.2-0.1h0.5c0.1,0,0.2,0,0.2,0.1c0.1,0.1,0.1,0.1,0.1,0.2V19l3.8-5.7c0.1-0.1,0.1-0.2,0.2-0.2
			c0.1-0.1,0.2-0.1,0.3-0.1h0.4c0.1,0,0.2,0,0.2,0.1c0.1,0.1,0.1,0.1,0.1,0.2v7.5c0,0.1,0,0.2-0.1,0.2c-0.1,0.1-0.1,0.1-0.2,0.1
			h-0.5c-0.1,0-0.2,0-0.2-0.1c-0.1-0.1-0.1-0.1-0.1-0.2v-5.7l-3.8,5.7c-0.1,0.1-0.1,0.2-0.2,0.2c-0.1,0.1-0.2,0.1-0.3,0.1h-0.4V21.2
			z"/>
		<path id="Path_3_" style="fill:#FFFFFF;" d="M142.1,16.2c0,0.4,0,0.7,0,1s0,0.6,0,1c0,0.6,0.2,1.2,0.6,1.6
			c0.4,0.4,0.9,0.6,1.6,0.6c0.4,0,0.7,0,1-0.1c0.2-0.1,0.5-0.2,0.6-0.4s0.3-0.3,0.4-0.5c0.1-0.2,0.1-0.4,0.2-0.6
			c0-0.1,0.1-0.1,0.1-0.2c0.1,0,0.1-0.1,0.2-0.1h0.5c0.1,0,0.1,0,0.2,0.1c0,0,0.1,0.1,0.1,0.2c0,0.2-0.1,0.5-0.2,0.8
			c-0.1,0.3-0.3,0.6-0.6,0.8c-0.2,0.3-0.6,0.5-1,0.7s-0.9,0.3-1.5,0.3c-0.5,0-1-0.1-1.3-0.2c-0.4-0.2-0.7-0.4-1-0.7
			c-0.3-0.3-0.5-0.6-0.7-1c-0.1-0.4-0.2-0.8-0.2-1.3c0-0.7,0-1.4,0-2.1c0-0.5,0.1-0.9,0.2-1.3c0.1-0.4,0.4-0.7,0.7-1s0.6-0.5,1-0.7
			s0.8-0.2,1.3-0.2c0.6,0,1.1,0.1,1.5,0.3s0.7,0.4,1,0.7c0.2,0.3,0.5,0.6,0.6,0.8c0.1,0.3,0.2,0.6,0.2,0.8c0,0.1,0,0.1-0.1,0.2
			c0,0-0.1,0.1-0.2,0.1h-0.5c-0.1,0-0.1,0-0.2-0.1c-0.1,0-0.1-0.1-0.1-0.2c0-0.2-0.1-0.4-0.2-0.6s-0.2-0.4-0.4-0.5s-0.4-0.3-0.6-0.4
			c-0.2-0.1-0.6-0.1-1-0.1c-0.7,0-1.2,0.2-1.6,0.6C142.3,15,142.2,15.6,142.1,16.2z"/>
		<path id="Path_4_" style="fill:#FFFFFF;" d="M153.8,13c0.1,0,0.2,0,0.2,0.1c0.1,0.1,0.1,0.1,0.1,0.2v0.4c0,0.1,0,0.2-0.1,0.2
			c-0.1,0.1-0.1,0.1-0.2,0.1h-2.2v6.8c0,0.1,0,0.2-0.1,0.2c-0.1,0.1-0.1,0.1-0.2,0.1h-0.5c-0.1,0-0.2,0-0.2-0.1
			c-0.1-0.1-0.1-0.1-0.1-0.2V14h-2.2c-0.1,0-0.2,0-0.2-0.1c-0.1-0.1-0.1-0.1-0.1-0.2v-0.4c0-0.1,0-0.2,0.1-0.2
			c0.1-0.1,0.1-0.1,0.2-0.1C148.3,13,153.8,13,153.8,13z"/>
		<path id="Path_5_" style="fill:#FFFFFF;" d="M161,20.1c0.1,0,0.1,0,0.2,0.1c0.1,0.1,0.1,0.1,0.1,0.2v0.4c0,0.1,0,0.2-0.1,0.2
			c-0.1,0.1-0.1,0.1-0.2,0.1h-4.7c-0.1,0-0.2,0-0.2-0.1c-0.1-0.1-0.1-0.1-0.1-0.2v-7.5c0-0.1,0-0.2,0.1-0.2c0.1-0.1,0.1-0.1,0.2-0.1
			h4.6c0.1,0,0.1,0,0.2,0.1c0.1,0.1,0.1,0.1,0.1,0.2v0.4c0,0.1,0,0.2-0.1,0.2C161,14,161,14,160.9,14h-3.8v2.5h3.5
			c0.1,0,0.2,0,0.2,0.1c0.1,0.1,0.1,0.1,0.1,0.2v0.4c0,0.1,0,0.2-0.1,0.2c-0.1,0.1-0.1,0.1-0.2,0.1H157V20L161,20.1L161,20.1z"/>
		<path id="Path_6_" style="fill:#FFFFFF;" d="M165.7,17.9l2.4-4.6c0-0.1,0.1-0.2,0.2-0.2c0.1-0.1,0.2-0.1,0.3-0.1h0.5
			c0.1,0,0.2,0,0.2,0.1s0.1,0.1,0.1,0.2v7.5c0,0.1,0,0.2-0.1,0.2c-0.1,0.1-0.1,0.1-0.2,0.1h-0.5c-0.1,0-0.2,0-0.2-0.1
			c-0.1-0.1-0.1-0.1-0.1-0.2v-5.5l-1.8,3.5c-0.1,0.1-0.1,0.2-0.2,0.3c-0.1,0.1-0.2,0.1-0.3,0.1h-0.5c-0.1,0-0.2,0-0.3-0.1
			s-0.1-0.1-0.2-0.3l-1.8-3.5v5.5c0,0.1,0,0.2-0.1,0.2c-0.1,0.1-0.1,0.1-0.2,0.1h-0.5c-0.1,0-0.2,0-0.2-0.1
			c-0.1-0.1-0.1-0.1-0.1-0.2v-7.5c0-0.1,0-0.2,0.1-0.2c0.1-0.1,0.1-0.1,0.2-0.1h0.5c0.1,0,0.2,0,0.3,0.1s0.1,0.2,0.2,0.2L165.7,17.9
			z"/>
		<path id="Shape" style="fill:#FFFFFF;" d="M176.8,19.3h-4l-0.6,1.6c0,0.1-0.1,0.1-0.1,0.2c-0.1,0.1-0.2,0.1-0.3,0.1h-0.4
			c-0.1,0-0.1,0-0.2-0.1c0,0-0.1-0.1-0.1-0.2c0,0,0-0.1,0-0.2l2.9-7.3c0-0.1,0.1-0.2,0.2-0.2c0.1-0.1,0.2-0.1,0.4-0.1h0.7
			c0.1,0,0.3,0,0.4,0.1c0.1,0.1,0.1,0.2,0.2,0.2l2.8,7.3c0,0.1,0,0.1,0,0.2s0,0.1-0.1,0.2c0,0-0.1,0.1-0.2,0.1H178
			c-0.1,0-0.2,0-0.3-0.1s-0.1-0.1-0.1-0.2L176.8,19.3z M173.1,18.3h3.2l-1.6-4.2L173.1,18.3z"/>
	</g>
	<path id="СОПТ" style="fill:#185DD3;" d="M125.9,23.2c-1.6,0-2.8-0.4-3.6-1.2c-0.9-0.8-1.3-1.9-1.4-3.4c0-0.3,0-0.8,0-1.5
		s0-1.2,0-1.5c0.1-1.5,0.5-2.6,1.4-3.4c0.9-0.8,2.1-1.2,3.6-1.2c1,0,1.9,0.2,2.6,0.5s1.3,0.8,1.7,1.4s0.6,1.3,0.7,2l0,0
		c0,0.1,0,0.2-0.1,0.2c-0.1,0.1-0.2,0.1-0.2,0.1H129c-0.1,0-0.2,0-0.3-0.1s-0.1-0.2-0.2-0.3c-0.2-0.7-0.5-1.2-0.9-1.5
		s-1-0.4-1.7-0.4c-1.6,0-2.5,0.9-2.5,2.7c0,0.3,0,0.8,0,1.4s0,1.1,0,1.4c0.1,1.8,0.9,2.7,2.5,2.7c0.7,0,1.2-0.1,1.7-0.4
		c0.5-0.3,0.7-0.8,0.9-1.5c0-0.2,0.1-0.3,0.2-0.3c0.1-0.1,0.2-0.1,0.3-0.1h1.6c0.1,0,0.2,0,0.3,0.1s0.1,0.2,0.1,0.3
		c0,0.7-0.2,1.4-0.7,2c-0.4,0.6-1,1.1-1.7,1.4C127.8,23,126.9,23.2,125.9,23.2z M137.6,23.2c-1.6,0-2.8-0.4-3.6-1.2
		c-0.9-0.8-1.3-1.9-1.4-3.5c0-0.3,0-0.8,0-1.4s0-1.1,0-1.5c0-1.5,0.5-2.7,1.4-3.5s2.1-1.2,3.6-1.2s2.7,0.4,3.6,1.2
		c0.9,0.8,1.4,2,1.4,3.5c0,0.7,0,1.1,0,1.5c0,0.3,0,0.8,0,1.4c0,1.5-0.5,2.7-1.4,3.5S139.1,23.2,137.6,23.2z M137.6,21.2
		c0.8,0,1.4-0.2,1.8-0.7c0.4-0.5,0.7-1.2,0.7-2.1c0-0.7,0-1.1,0-1.4s0-0.7,0-1.4c0-0.9-0.3-1.6-0.7-2.1c-0.5-0.5-1-0.7-1.8-0.7
		c-0.7,0-1.3,0.2-1.8,0.7s-0.7,1.2-0.7,2.1c0,0.3,0,0.8,0,1.4s0,1,0,1.4c0,0.9,0.3,1.6,0.7,2.1S136.8,21.2,137.6,21.2z M145.2,23
		c-0.1,0-0.2,0-0.3-0.1s-0.1-0.2-0.1-0.3V11.5c0-0.1,0-0.2,0.1-0.3s0.2-0.1,0.3-0.1h8.9c0.1,0,0.2,0,0.3,0.1s0.1,0.2,0.1,0.3v11.1
		c0,0.1,0,0.2-0.1,0.3s-0.2,0.1-0.3,0.1h-1.6c-0.1,0-0.2,0-0.3-0.1s-0.1-0.2-0.1-0.3v-9.3h-5v9.3c0,0.1,0,0.2-0.1,0.3
		c-0.1,0.1-0.2,0.1-0.3,0.1H145.2z M160.2,23c-0.1,0-0.2,0-0.3-0.1s-0.1-0.2-0.1-0.3v-9.4h-3.1c-0.1,0-0.2,0-0.3-0.1
		s-0.1-0.2-0.1-0.3v-1.3c0-0.1,0-0.2,0.1-0.3s0.2-0.1,0.3-0.1h8.7c0.1,0,0.2,0,0.3,0.1s0.1,0.2,0.1,0.3v1.3c0,0.1,0,0.2-0.1,0.3
		s-0.2,0.1-0.3,0.1h-3.1v9.4c0,0.1,0,0.2-0.1,0.3c-0.1,0.1-0.2,0.1-0.3,0.1H160.2z"/>
	
		<linearGradient id="Path_17_" gradientUnits="userSpaceOnUse" x1="254.4677" y1="0.8713" x2="255.4501" y2="0.2398" gradientTransform="matrix(35.7097 0 0 41.8064 -9018.4219 12.1961)">
		<stop  offset="0" style="stop-color:#5697DC"/>
		<stop  offset="0.374" style="stop-color:#4B83BC"/>
		<stop  offset="0.6983" style="stop-color:#41709C"/>
	</linearGradient>
	<polygon id="Path_7_" style="fill:url(#Path_17_);" points="97.4,10.2 71.1,52 92.9,47 106.8,25 	"/>
	
		<linearGradient id="Path_18_" gradientUnits="userSpaceOnUse" x1="254.6046" y1="0.9521" x2="255.2251" y2="0.3161" gradientTransform="matrix(35.7097 0 0 41.8064 -9018.4219 12.1961)">
		<stop  offset="0" style="stop-color:#5EA4F3"/>
		<stop  offset="0.3106" style="stop-color:#5899E0"/>
		<stop  offset="0.9372" style="stop-color:#497EAF"/>
		<stop  offset="1" style="stop-color:#477BAA"/>
	</linearGradient>
	<polygon id="Path_8_" style="fill:url(#Path_18_);" points="97.4,10.2 71.1,52 106.8,25 	"/>
	
		<linearGradient id="Path_19_" gradientUnits="userSpaceOnUse" x1="254.6406" y1="-0.1024" x2="255.3847" y2="0.6964" gradientTransform="matrix(35.7097 0 0 41.8064 -9018.4219 2.494812e-003)">
		<stop  offset="0" style="stop-color:#386391"/>
		<stop  offset="0.7351" style="stop-color:#335786"/>
		<stop  offset="1" style="stop-color:#315181"/>
	</linearGradient>
	<polygon id="Path_9_" style="fill:url(#Path_19_);" points="97.4,39.8 71.1,-2 92.9,3 106.8,25 	"/>
	
		<linearGradient id="Path_20_" gradientUnits="userSpaceOnUse" x1="254.6381" y1="-0.1884" x2="255.6107" y2="0.7866" gradientTransform="matrix(35.7097 0 0 27 -9018.4219 0)">
		<stop  offset="0.2235" style="stop-color:#4B84AF"/>
		<stop  offset="1" style="stop-color:#355886"/>
	</linearGradient>
	<polygon id="Path_10_" style="fill:url(#Path_20_);" points="71.1,-2 92.9,3 106.8,25 	"/>
	
		<linearGradient id="Path_21_" gradientUnits="userSpaceOnUse" x1="246.1042" y1="-0.1031" x2="245.2249" y2="0.6698" gradientTransform="matrix(13.0645 0 0 14.8064 -3107.1589 27.0025)">
		<stop  offset="0" style="stop-color:#42729E"/>
		<stop  offset="0.3288" style="stop-color:#3B608F"/>
		<stop  offset="1" style="stop-color:#2D3F72"/>
	</linearGradient>
	<polygon id="Path_11_" style="fill:url(#Path_21_);" points="94.6,34.6 98,39.8 107.7,25 	"/>
	
		<linearGradient id="Path_22_" gradientUnits="userSpaceOnUse" x1="251.6126" y1="0.8025" x2="252.2601" y2="0.4361" gradientTransform="matrix(23.5161 0 0 27.871 -5854.1895 17.4176)">
		<stop  offset="0" style="stop-color:#CFE135"/>
		<stop  offset="0.2223" style="stop-color:#BAD433"/>
		<stop  offset="0.7373" style="stop-color:#90B930"/>
		<stop  offset="1" style="stop-color:#7FAE2F"/>
	</linearGradient>
	<polygon id="Path_12_" style="fill:url(#Path_22_);" points="82.3,15.4 65,43.3 79.4,39.9 88.5,25.3 	"/>
	
		<linearGradient id="Path_23_" gradientUnits="userSpaceOnUse" x1="251.665" y1="0.8887" x2="252.5447" y2="0.1317" gradientTransform="matrix(23.5161 0 0 27.871 -5854.1895 17.4176)">
		<stop  offset="0.4022" style="stop-color:#D9E636"/>
		<stop  offset="0.4883" style="stop-color:#C7DB36"/>
		<stop  offset="0.6593" style="stop-color:#9ABF35"/>
		<stop  offset="0.8248" style="stop-color:#68A135"/>
	</linearGradient>
	<polygon id="Path_13_" style="fill:url(#Path_23_);" points="82.3,15.4 65,43.3 88.5,25.3 	"/>
	
		<linearGradient id="Path_24_" gradientUnits="userSpaceOnUse" x1="251.7845" y1="-9.475066e-002" x2="252.541" y2="0.644" gradientTransform="matrix(23.5161 0 0 27.871 -5854.1895 9.579)">
		<stop  offset="0" style="stop-color:#95BD49"/>
		<stop  offset="1" style="stop-color:#4C8645"/>
	</linearGradient>
	<polygon id="Path_14_" style="fill:url(#Path_24_);" points="82.3,35.5 65,7.6 79.4,10.9 88.5,25.6 	"/>
	
		<linearGradient id="Path_25_" gradientUnits="userSpaceOnUse" x1="251.8073" y1="-0.229" x2="252.7797" y2="0.7454" gradientTransform="matrix(23.5161 0 0 17.4194 -5854.1895 9.5783)">
		<stop  offset="0" style="stop-color:#C9D542"/>
		<stop  offset="0.4294" style="stop-color:#92B447"/>
		<stop  offset="0.8074" style="stop-color:#679A4B"/>
		<stop  offset="1" style="stop-color:#57904D"/>
	</linearGradient>
	<polygon id="Path_15_" style="fill:url(#Path_25_);" points="65,7.6 79.4,10.8 88.5,25 	"/>
	
		<linearGradient id="Path_26_" gradientUnits="userSpaceOnUse" x1="237.6639" y1="0.292" x2="238.661" y2="0.292" gradientTransform="matrix(8.7097 0 0 9.5806 -1989.7124 27.0023)">
		<stop  offset="0" style="stop-color:#365F19"/>
		<stop  offset="0.681" style="stop-color:#427428"/>
		<stop  offset="1" style="stop-color:#487F30"/>
	</linearGradient>
	<polygon id="Path_16_" style="fill:url(#Path_26_);" points="79.8,31.2 82,34.6 88.5,25 	"/>
	<text transform="matrix(1 0 0 1 121 37)" style="fill:#185DD3; font-family:'ArialMT'; font-size:10px;">ЛК администратора ЭНП</text>
</g>
</svg>
