<svg width="200" height="56" viewBox="0 0 200 56" fill="none" xmlns="http://www.w3.org/2000/svg">
<path d="M43.7459 7.35L36.3198 33.075H35.0493L27.6232 7.35C26.3527 2.99687 22.3658 0 17.8094 0H0V56H17.8313V22.9031H19.1019L29.31 56H42.0592L52.2454 22.9031H53.5159V56H71.3473V0H53.5378C49.0033 0 45.0165 2.99687 43.7459 7.35ZM142.475 56H160.416V39.4406H178.467C187.908 39.4406 195.948 34.1031 199.058 26.6H142.475V56ZM110.69 5.90625L98.1381 33.0969H96.8675V0H79.0362V56H94.1731C98.16 56 101.774 53.6812 103.439 50.0938L115.991 22.925H117.262V56H135.093V0H119.956C115.969 0 112.355 2.31875 110.69 5.90625Z" fill="#006848"/>
<path d="M38.5981 0C43.7459 0 48.4119 1.96875 51.9387 5.20625C55.8818 8.79375 58.3571 13.9563 58.3571 19.7094C58.3571 20.8906 58.2257 22.05 58.0285 23.1875H24.9069C13.6911 23.1875 4.18401 15.8375 0.985762 5.6875C0.94195 5.57812 0.920044 5.44687 0.876233 5.31562C0.78861 5.00937 0.722897 4.68125 0.635274 4.375C0.306687 2.95312 0.0876233 1.50937 0 0H38.5981Z" transform="translate(141.643)" fill="url(#paint0_linear)"/>
<defs>
<linearGradient id="paint0_linear" x2="1" gradientUnits="userSpaceOnUse" gradientTransform="translate(58.3572 72.5192) scale(58 145.038) rotate(180)">
<stop stop-color="#1E5CD8"/>
<stop offset="1" stop-color="#02AFFF"/>
</linearGradient>
</defs>
</svg>
