<svg width="48" height="48" viewBox="0 0 48 48" fill="none" xmlns="http://www.w3.org/2000/svg">
    <path d="M14.5158 43.3865C13.0016 42.6914 11.3136 40.8793 10.7675 39.3154L7.81344 31.0243C7.26732 29.4604 7.39143 26.978 8.11132 25.4638L10.5192 20.4246C10.5689 20.3253 10.6185 20.226 10.6682 20.1267C10.693 20.1019 10.693 20.0771 10.7178 20.0522C11.0405 19.4565 11.4873 18.7614 11.9838 18.116C11.9838 18.0912 12.0086 18.0912 12.0086 18.0664C12.0583 17.9919 12.1079 17.9174 12.1824 17.8429C12.2072 17.8181 12.2321 17.7933 12.2569 17.7685C12.3065 17.694 12.3562 17.6444 12.4058 17.5699C12.4306 17.5451 12.4555 17.4954 12.4803 17.4706C12.5299 17.4209 12.5796 17.3713 12.6292 17.2968C12.6541 17.2472 12.7037 17.2224 12.7285 17.1727C12.7782 17.1231 12.803 17.0734 12.8526 17.0238C12.9023 16.9741 12.9271 16.9493 12.9768 16.8996C13.0264 16.85 13.0512 16.8004 13.1009 16.7755C13.1505 16.7259 13.1754 16.6762 13.225 16.6514C13.2498 16.6018 13.2995 16.5769 13.3243 16.5273C13.3739 16.4776 13.4236 16.428 13.4484 16.3784C13.4732 16.3535 13.5229 16.3039 13.5477 16.2791C13.5974 16.2294 13.647 16.1798 13.6966 16.1301C13.7215 16.1053 13.7463 16.0805 13.7711 16.0556C13.8456 15.9812 13.9201 15.9067 13.9945 15.8571L17.3954 12.903C17.5691 12.7541 17.7181 12.6052 17.7926 12.5059C17.7429 12.5059 17.6933 12.5307 17.6436 12.5307C17.594 12.5555 17.5443 12.5555 17.4698 12.5803C17.3954 12.6052 17.3209 12.63 17.2464 12.6548L11.9838 14.5166C10.6185 14.9882 8.93051 16.5025 8.30991 17.8181L4.53671 25.7617C3.91612 27.0773 3.81683 29.3115 4.33813 30.6768L8.55815 41.9219C9.05462 43.2624 10.6433 44.6525 12.0335 44.9752L24.3708 47.8299L14.5158 43.3865Z" fill="url(#paint0_linear)"/>
    <path d="M11.2402 20.7722C11.2651 20.6978 11.3147 20.6233 11.3395 20.5488C11.3147 20.6481 11.2899 20.7226 11.2402 20.7722Z" fill="white"/>
    <path d="M11.2402 20.7722C11.2651 20.6978 11.3147 20.6233 11.3395 20.5488C11.3147 20.6481 11.2899 20.7226 11.2402 20.7722Z" fill="url(#paint1_linear)"/>
    <path d="M40.6328 6.8457L44.4308 16.9986C45.0017 18.5625 44.9024 21.0448 44.1825 22.5343L40.4093 30.4778C39.6895 31.9672 37.8525 33.6553 36.2886 34.2014L31.026 36.0631C30.9267 36.088 30.8274 36.1376 30.7281 36.1624C29.189 36.6341 26.8556 36.932 25.3414 36.8327L20.8483 36.51C20.6001 36.4852 20.4263 36.4852 20.2773 36.51C20.3518 36.5596 20.4511 36.6093 20.5504 36.6589C20.6249 36.6837 20.6993 36.7334 20.7738 36.7582L25.813 39.1661C27.1287 39.7867 29.3876 39.9108 30.7529 39.4143L39.044 36.4603C40.4093 35.9887 42.0725 34.4496 42.6683 33.134L47.633 22.1867C48.2288 20.8959 48.0799 18.7859 47.3351 17.5695L40.6328 6.8457Z" fill="url(#paint2_linear)"/>
    <path d="M39.6879 30.1309L43.4611 22.1874C44.0817 20.8717 44.181 18.6376 43.6597 17.2723L39.4396 6.02717C38.9432 4.68669 37.3544 3.29657 35.9643 2.97386L23.627 0.119141L33.482 4.61222C34.9962 5.30728 36.6842 7.11941 37.2303 8.6833L40.1843 16.9744C40.7305 18.5383 40.6063 21.0207 39.8865 22.5349L37.4786 27.5741C37.4289 27.6734 37.3793 27.7479 37.3544 27.8472V27.872C37.3296 27.8968 37.3296 27.9216 37.3048 27.9465C37.0069 28.4926 36.6346 29.0635 36.2126 29.6593C35.7161 30.3792 35.0707 31.1984 34.4004 31.7941C34.2763 31.9182 34.1522 32.0424 34.0281 32.1417L30.6272 35.0708C30.4535 35.2198 30.3045 35.3687 30.2301 35.468C30.3045 35.4432 30.4286 35.4184 30.5528 35.3936C30.6272 35.3687 30.7017 35.3439 30.7762 35.3191L36.0388 33.4573C37.3793 32.936 39.0673 31.4218 39.6879 30.1309Z" fill="url(#paint3_linear)"/>
    <path d="M39.4148 17.2477L36.4608 8.9566C35.9891 7.5913 34.45 5.92812 33.1344 5.33235L22.1871 0.367616C20.8963 -0.228152 18.7863 -0.0792109 17.5699 0.665499L6.82129 7.36789L16.9742 3.56987C17.0735 3.54504 17.1728 3.4954 17.2472 3.47057C17.2721 3.47057 17.3217 3.44575 17.3465 3.44575C17.421 3.42092 17.4706 3.42093 17.5451 3.3961C17.5948 3.3961 17.6196 3.37128 17.6692 3.37128C17.7437 3.34645 17.7934 3.34645 17.8678 3.32163C17.9175 3.32163 17.9671 3.2968 17.9919 3.2968C18.0664 3.2968 18.1161 3.27198 18.1905 3.27198C18.2402 3.27198 18.2898 3.24716 18.3395 3.24716C18.4139 3.24716 18.4884 3.22234 18.5381 3.22234C18.5877 3.22234 18.6374 3.22234 18.6622 3.19751C18.7366 3.19751 18.8111 3.19751 18.9104 3.17269C18.9352 3.17269 18.9849 3.17269 19.0097 3.17269C19.1338 3.17269 19.2331 3.17269 19.3572 3.17269C19.4814 3.17269 19.6303 3.17269 19.7544 3.17269C19.7792 3.17269 19.8041 3.17269 19.8537 3.17269C19.953 3.17269 20.0523 3.19751 20.1764 3.19751C20.2261 3.19751 20.2757 3.19751 20.3254 3.22234C20.4247 3.22234 20.4991 3.24716 20.5984 3.24716C20.6481 3.24716 20.6977 3.27198 20.7474 3.27198C20.8218 3.27198 20.8963 3.29681 20.9956 3.32163C21.0453 3.32163 21.0949 3.34646 21.1445 3.34646C21.219 3.37128 21.2935 3.37128 21.368 3.3961C21.4176 3.3961 21.4672 3.42092 21.5169 3.42092C21.5914 3.44575 21.6658 3.47057 21.7403 3.49539C21.79 3.52022 21.8396 3.52022 21.8644 3.54504C21.9389 3.56986 22.0134 3.59469 22.0878 3.61951C22.1127 3.64434 22.1623 3.64434 22.1871 3.66916C22.2864 3.71881 22.4105 3.76845 22.5098 3.79328L30.4534 7.56648C31.9428 8.28636 33.6308 10.1233 34.177 11.6872L36.0387 16.9498C36.0636 17.0491 36.1132 17.1484 36.138 17.2477V17.2725C36.138 17.2974 36.1629 17.3222 36.1629 17.347C36.6345 18.8861 36.9076 21.145 36.8083 22.6096L36.4856 27.1027C36.4608 27.3509 36.4608 27.5247 36.4856 27.6736C36.5352 27.5992 36.5849 27.4999 36.6345 27.4006C36.6842 27.3261 36.709 27.2516 36.7338 27.1772L39.1417 22.138C39.7871 20.872 39.9112 18.613 39.4148 17.2477Z" fill="url(#paint4_linear)"/>
    <path d="M32.1173 13.9699L35.0713 17.3708C35.2202 17.5445 35.3692 17.6935 35.4685 17.7679C35.4436 17.6935 35.4188 17.5693 35.394 17.4452C35.3692 17.3707 35.3443 17.2963 35.3195 17.2218L33.4577 11.9592C32.9861 10.5939 31.447 8.90588 30.1562 8.28529L22.2126 4.5121C22.1133 4.46245 22.0388 4.43763 21.9396 4.38798C21.9147 4.38798 21.8651 4.36315 21.8403 4.36315C21.7658 4.33833 21.7161 4.31351 21.6417 4.28868C21.592 4.28868 21.5672 4.26386 21.5175 4.26386C21.4431 4.23904 21.3934 4.21421 21.319 4.21421C21.2693 4.21421 21.2445 4.18939 21.1948 4.18939C21.1204 4.16457 21.0459 4.16457 20.9714 4.13974C20.9218 4.13974 20.897 4.11492 20.8473 4.11492C20.7728 4.09009 20.6984 4.0901 20.6239 4.0901C20.5743 4.0901 20.5494 4.0901 20.4998 4.06527C20.4253 4.06527 20.326 4.04045 20.2515 4.04045C20.2267 4.04045 20.1771 4.04045 20.1522 4.04045C20.0281 4.04045 19.9288 4.01563 19.8047 4.01563H19.7799C19.6558 4.01563 19.5317 4.01563 19.4075 4.01563C19.3082 4.01563 19.209 4.01563 19.1097 4.01563C19.06 4.01563 19.0352 4.01563 18.9855 4.01563C18.9359 4.01563 18.8614 4.01563 18.8118 4.01563C18.7621 4.01563 18.7125 4.01563 18.6628 4.01563C18.6132 4.01563 18.5635 4.01562 18.4891 4.04045C18.4394 4.04045 18.3898 4.04045 18.3649 4.06527C18.3153 4.06527 18.2656 4.0901 18.1912 4.0901C18.1415 4.0901 18.1167 4.11492 18.0671 4.11492C18.0174 4.11492 17.9678 4.13974 17.8933 4.13974C17.8437 4.13974 17.8188 4.16456 17.7692 4.16456C17.7195 4.18939 17.6451 4.18939 17.5954 4.21421C17.5706 4.21421 17.5458 4.23904 17.4961 4.23904C17.4216 4.26386 17.3224 4.28868 17.2479 4.31351L6.00276 8.53353C4.66228 9.03 3.27216 10.6187 2.94945 12.0088L0.0947266 24.3462L4.58781 14.4912C5.28287 12.977 7.095 11.289 8.65889 10.7428L16.95 7.78882C17.6451 7.54058 18.4891 7.44129 19.3827 7.44129C20.4998 7.46611 21.6665 7.6647 22.5105 8.06188L27.5497 10.4698C27.649 10.5194 27.7235 10.5691 27.8228 10.6187C27.8228 10.6187 27.8476 10.6187 27.8476 10.6435C27.8724 10.6684 27.8972 10.6684 27.9221 10.6932C29.3618 11.4627 31.1491 12.8528 32.1173 13.9699Z" fill="url(#paint5_linear)"/>
    <path d="M3.8181 25.4638L7.5913 17.5202C8.31119 16.0308 10.1481 14.3428 11.712 13.7967L16.9746 11.9349C17.0739 11.9101 17.1732 11.8604 17.2725 11.8356H17.2974C17.3222 11.8356 17.3718 11.8108 17.3967 11.8108C18.9357 11.3391 21.1947 11.0661 22.6593 11.1654L27.1524 11.4881C27.4006 11.5129 27.5744 11.5129 27.7233 11.4881C27.6488 11.4384 27.5495 11.3888 27.4502 11.3391C27.3758 11.2895 27.3013 11.2646 27.2268 11.2398L22.1876 8.83193C20.872 8.21134 18.613 8.08722 17.2477 8.58369L8.95661 11.5377C7.5913 12.0094 5.92812 13.5484 5.33235 14.8641L0.367616 25.8113C-0.228152 27.1021 -0.0792109 29.2122 0.665499 30.4285L7.36789 41.1772L3.59469 30.9995C2.99892 29.4356 3.12304 26.9532 3.8181 25.4638Z" fill="url(#paint6_linear)"/>
    <path d="M30.4063 47.3089L41.155 40.6065L31.0269 44.4046C30.9276 44.4294 30.8283 44.479 30.7538 44.5039C30.729 44.5039 30.7042 44.5287 30.6546 44.5287C30.5801 44.5535 30.5056 44.5783 30.4311 44.5783C30.4063 44.5783 30.3567 44.6031 30.3318 44.6031C30.2574 44.628 30.1829 44.628 30.1084 44.6528C30.0588 44.6528 30.034 44.6776 29.9843 44.6776C29.9098 44.7024 29.8354 44.7024 29.7609 44.7024C29.7361 44.7024 29.6864 44.7024 29.6616 44.7273C29.5871 44.7273 29.4878 44.7521 29.4134 44.7521C29.3885 44.7521 29.3637 44.7521 29.3141 44.7521C29.2148 44.7521 29.0907 44.7769 28.9914 44.7769H28.9665C28.8424 44.7769 28.7431 44.7769 28.619 44.7769C28.619 44.7769 28.619 44.7769 28.5942 44.7769C28.4701 44.7769 28.346 44.7769 28.197 44.7769C28.1474 44.7769 28.0977 44.7769 28.0232 44.7769C27.9488 44.7769 27.8743 44.7769 27.775 44.7521C27.7254 44.7521 27.6509 44.7521 27.6012 44.7273C27.5268 44.7273 27.4523 44.7024 27.3778 44.7024C27.3282 44.7024 27.2537 44.6776 27.2041 44.6776C27.1296 44.6776 27.0551 44.6528 26.9806 44.6528C26.931 44.6528 26.8565 44.628 26.8069 44.628C26.7324 44.6031 26.6579 44.6031 26.5835 44.5783C26.5338 44.5535 26.4842 44.5535 26.4345 44.5287C26.3601 44.5039 26.2856 44.479 26.2111 44.479C26.1615 44.4542 26.1118 44.4542 26.0622 44.4294C25.9877 44.4046 25.9132 44.3797 25.8388 44.3549C25.7891 44.3301 25.7643 44.3301 25.7146 44.3053C25.6153 44.2556 25.4912 44.2308 25.3919 44.1811L17.4484 40.4079C15.9589 39.6881 14.2709 37.8511 13.7248 36.2872L11.863 31.0246C11.8382 30.9253 11.7886 30.826 11.7637 30.7267V30.7019C11.7637 30.6771 11.7389 30.6522 11.7389 30.6274C11.2673 29.0884 10.9942 26.8294 11.0935 25.3648L11.4162 20.8717C11.441 20.6235 11.441 20.4497 11.4162 20.3008C11.3914 20.3256 11.3666 20.3753 11.3417 20.4249C11.3169 20.4745 11.2673 20.5242 11.2424 20.5987C11.1928 20.6731 11.168 20.7476 11.1431 20.8221L8.73525 25.8613C8.11466 27.1769 7.99054 29.4359 8.48701 30.8012L11.441 39.0923C11.9127 40.4576 13.4517 42.1208 14.7674 42.7166L25.7146 47.6813C27.1048 48.2026 29.2148 48.0785 30.4063 47.3089Z" fill="url(#paint7_linear)"/>
    <path d="M43.4117 33.4825C42.7167 34.9968 40.9045 36.6848 39.3158 37.2309L31.0247 40.1849C30.9254 40.2097 30.851 40.2345 30.7517 40.2842C30.7268 40.2842 30.6772 40.309 30.6524 40.309C30.5779 40.3338 30.5282 40.3338 30.4538 40.3587C30.4041 40.3587 30.3793 40.3835 30.3297 40.3835C30.2552 40.4083 30.2055 40.4083 30.1311 40.4331C30.0814 40.4331 30.0566 40.458 30.007 40.458C29.9325 40.458 29.858 40.4828 29.7835 40.4828C29.7339 40.4828 29.7091 40.4828 29.6594 40.5076C29.5601 40.5076 29.4608 40.5324 29.3864 40.5324C29.3615 40.5324 29.3615 40.5324 29.3367 40.5324C29.2374 40.5324 29.1133 40.5573 28.9892 40.5573C28.9395 40.5573 28.9147 40.5573 28.8651 40.5573C28.8154 40.5573 28.7658 40.5573 28.6913 40.5573C28.6665 40.5573 28.6665 40.5573 28.6417 40.5573C28.5424 40.5573 28.4431 40.5573 28.3438 40.5573C28.2941 40.5573 28.2693 40.5573 28.2196 40.5573C28.0707 40.5573 27.9466 40.5324 27.7977 40.5324C27.7977 40.5324 27.7976 40.5324 27.7728 40.5324C27.6487 40.5324 27.4998 40.5076 27.3756 40.4828C27.326 40.4828 27.3012 40.458 27.2515 40.458C27.1522 40.4331 27.0778 40.4331 26.9785 40.4083C26.9288 40.4083 26.8792 40.3835 26.8295 40.3835C26.7551 40.3587 26.6558 40.3587 26.5813 40.3338C26.5316 40.3338 26.482 40.309 26.4323 40.309C26.3579 40.2842 26.2834 40.2594 26.2089 40.2345C26.1593 40.2097 26.1096 40.2097 26.0848 40.1849C26.0103 40.1601 25.9359 40.1353 25.8366 40.1104C25.8118 40.0856 25.7621 40.0856 25.7373 40.0608C25.638 40.0111 25.5139 39.9615 25.4146 39.9118L20.3754 37.5039C20.2761 37.4543 20.2016 37.4047 20.1023 37.3798C20.1023 37.3798 20.0775 37.3798 20.0775 37.355C20.0527 37.3302 20.0278 37.3302 20.003 37.3054C18.5881 36.5358 16.8008 35.1457 15.8326 34.0286L12.8786 30.6278C12.7297 30.454 12.5807 30.3051 12.4814 30.2306C12.5063 30.3051 12.5311 30.4292 12.5559 30.5533C12.5807 30.6278 12.6056 30.7023 12.6304 30.7767L14.4922 36.0393C14.9638 37.4046 16.4781 39.0927 17.7937 39.7132L25.7373 43.4864C27.0529 44.107 29.2871 44.2063 30.6524 43.685L41.8975 39.465C43.238 38.9685 44.6281 37.3798 44.9508 35.9897L47.8055 23.6523L43.4117 33.4825Z" fill="url(#paint8_linear)"/>
    <defs>
        <linearGradient id="paint0_linear" x1="20.9747" y1="47.9091" x2="10.5086" y2="11.2113" gradientUnits="userSpaceOnUse">
            <stop stop-color="#6FCF97"/>
            <stop offset="1" stop-color="#185DD3"/>
        </linearGradient>
        <linearGradient id="paint1_linear" x1="7.88966" y1="20.6739" x2="43.2978" y2="20.6739" gradientUnits="userSpaceOnUse">
            <stop stop-color="#93B717"/>
            <stop offset="1" stop-color="#008030"/>
        </linearGradient>
        <linearGradient id="paint2_linear" x1="19.6391" y1="23.2746" x2="48.4086" y2="23.2746" gradientUnits="userSpaceOnUse">
            <stop stop-color="#6FCF97"/>
            <stop offset="1" stop-color="#219653"/>
        </linearGradient>
        <linearGradient id="paint3_linear" x1="26.6333" y1="37.9586" x2="34.366" y2="8.13241" gradientUnits="userSpaceOnUse">
            <stop offset="0.0046274" stop-color="#27AE60"/>
            <stop offset="1" stop-color="#185DD3"/>
        </linearGradient>
        <linearGradient id="paint4_linear" x1="19.238" y1="40.3385" x2="19.9677" y2="10.5185" gradientUnits="userSpaceOnUse">
            <stop offset="0.0046274" stop-color="#27AE60"/>
            <stop offset="1" stop-color="#185DD3"/>
        </linearGradient>
        <linearGradient id="paint5_linear" x1="-4.71631" y1="18.3684" x2="24.8238" y2="8.93544" gradientUnits="userSpaceOnUse">
            <stop offset="0.00228751" stop-color="#18B1D3"/>
            <stop offset="1" stop-color="#185DD3"/>
        </linearGradient>
        <linearGradient id="paint6_linear" x1="-3.22708" y1="30.9049" x2="30.1608" y2="13.9007" gradientUnits="userSpaceOnUse">
            <stop offset="0.00228751" stop-color="#18B1D3"/>
            <stop offset="1" stop-color="#0247BD"/>
            <stop offset="1" stop-color="#185DD3"/>
        </linearGradient>
        <linearGradient id="paint7_linear" x1="-3.72161" y1="25.0716" x2="43.3005" y2="34.1376" gradientUnits="userSpaceOnUse">
            <stop stop-color="#6FCF97"/>
            <stop offset="1" stop-color="#219653"/>
        </linearGradient>
        <linearGradient id="paint8_linear" x1="10.3016" y1="31.5262" x2="46.1718" y2="39.2215" gradientUnits="userSpaceOnUse">
            <stop stop-color="#6FCF97"/>
            <stop offset="1" stop-color="#219653"/>
        </linearGradient>
    </defs>
</svg>
